<?xml version="1.0" encoding="utf-8"?>
<!-- Generator: Adobe Illustrator 19.0.0, SVG Export Plug-In . SVG Version: 6.00 Build 0)  -->
<svg version="1.1" id="Layer_1" xmlns="http://www.w3.org/2000/svg" xmlns:xlink="http://www.w3.org/1999/xlink" x="0px" y="0px"
	 viewBox="0 0 89.6 115.9" style="enable-background:new 0 0 89.6 115.9;" xml:space="preserve">
<style type="text/css">
	.st0{fill:#133151;}
	.st1{fill:#FFFFFF;}
	.st2{fill:#282460;}
</style>
<g id="XMLID_3_">
	<g id="XMLID_6_">
		<path id="XMLID_969_" class="st0" d="M43.2,83c0-0.2-0.1-0.4-0.1-0.6h0.3c0,0.2,0.1,0.4,0.1,0.6H43.2z"/>
		<path id="XMLID_968_" class="st0" d="M88.8,83l-44,32.3L0.9,83h42.4c0.1,0.8,0.3,1.5,0.6,2.3c0.2,0.5,0.5,0.4,0.5,0
			c0.1-0.8,0.2-1.5,0.3-2.3H88.8z"/>
		<path id="XMLID_920_" class="st0" d="M43.1,82.4c0,0.2,0.1,0.4,0.1,0.6H0.9L0,82.4H43.1z"/>
		<path id="XMLID_919_" class="st0" d="M44.1,82.5c-0.1,0.1-0.1,0.2-0.2,0.3c0,0,0,0,0,0c0.1,0.1,0.1,0.1,0.2,0.2H44
			c0,0-0.1-0.1-0.1-0.1c0,0,0,0.1,0,0.1h-0.1c0-0.1,0-0.1,0.1-0.2c0-0.1-0.1-0.1-0.1-0.2c0,0,0-0.1,0.1,0c0,0,0,0.1,0.1,0.1
			c0-0.1,0.1-0.2,0.2-0.3h0.2c0,0,0,0,0,0c0.1,0,0.1,0.1,0.2,0.1c0,0,0-0.1,0-0.1h0.3c0,0.2,0,0.4-0.1,0.6h-0.3c0-0.1,0-0.3,0-0.4
			C44.3,82.6,44.2,82.6,44.1,82.5z"/>
		<path id="XMLID_918_" class="st0" d="M56.5,32.9c1.3,0.7,2.6,1.2,4,1.6c0.1,0,0.2-0.1,0.2-0.2c-0.4-0.6-0.8-1.2-1.1-1.8
			c0.4,0.2,0.8,0.3,1.1,0.5c0.1,0,0.3-0.1,0.2-0.2c-0.3-0.5-0.6-1.1-0.9-1.6c0.5,0.4,1.2,0.6,1.9,0.8c1,0.3,1.9,0.4,2.9,0.5
			c0.1,0,0.2-0.1,0.1-0.2c-0.4-0.8-0.8-1.7-1.4-2.4c0.3,0.1,0.5,0.2,0.8,0.3c0.1,0,0.2-0.1,0.2-0.2c-0.1-0.2-0.2-0.3-0.3-0.4
			c1.6,0.6,3.3,0.9,5,1c0.1,0,0.2-0.1,0.1-0.2c-0.7-0.7-1.3-1.4-2-2.1c0.6,0.1,1.3,0.2,1.9,0.3c0.1,0,0.2-0.2,0.1-0.3
			c-0.3-0.3-0.6-0.6-1-0.9c1.3,0.4,2.7,0.4,4,0.3c0.1,0,0.2-0.2,0.1-0.3c-0.7-0.8-1.5-1.5-2.4-2.1c2,0.6,4.2,0.7,6.3,0.3
			c0.1,0,0.1-0.2,0.1-0.3c-3.2-2.6-7.3-4.2-11.4-4.3c-2.1-1.7-4.6-2.9-7.3-3.3C57.4,16,55,17.5,54.4,18c-0.5,0.4-1.4,0.9-1.5,1.3
			c-0.1,0.3,0.1,0.7,0.1,1c0.1,0.7,0.1,1.5-0.3,2.1c-0.6,1.1-2,1.6-3.2,1.4c-1.1-0.2-3-1.7-3-1.7c0.3-0.4,0.5-0.8,0.5-1.3
			c0.2-1.6-1.5-3.1-3.1-3.3c-1.7-0.1-3.1,1.2-3.1,2.9c0,0.6,0.2,1.1,0.5,1.6c0,0,0,0,0,0c-1.7,1.6-5.4,2.4-6.4-0.4
			c-0.2-0.5-0.2-1-0.2-1.5c0-0.5,0.2-0.9,0.3-1.4c0-0.4,0-0.4-0.4-0.5c-0.7,0-1.5-0.1-2.1-0.5c-0.4-0.2-0.7-0.5-1.1-0.6
			c-0.5-0.2-1.2-0.1-1.5,0.4c0,0.1-0.1,0.1-0.1,0.2c-2.5,0-5,1-7.2,2.3c-1.8,0.3-3.6,1.3-5.2,2.1c-1.8,0.9-3.6,2-5.3,3.2
			c-0.1,0.1-0.1,0.3,0.1,0.3c1.9,0.1,3.9,0,5.8-0.4c-0.1,0.1-0.2,0.1-0.3,0.2c-0.9,0.6-1.8,1.4-2.5,2.2c-0.1,0.1,0,0.3,0.1,0.3
			c1,0,2-0.1,2.9-0.2c-1.1,0.7-2.1,1.8-2.9,2.8c-0.1,0.1,0.1,0.3,0.2,0.2c1.3-0.4,2.6-0.3,3.9-0.8c0.6-0.2,1.2-0.5,1.8-0.8
			C20.1,30,19.1,31,18.1,32c-0.1,0.1,0,0.3,0.2,0.3c1.6-0.2,3.3-0.7,4.8-1.4c-0.7,0.7-1.3,1.4-1.8,2.2c-0.1,0.1,0.1,0.2,0.2,0.2
			c1.1-0.2,2.4-0.5,3.4-1c-0.3,0.4-0.6,0.8-0.9,1.2c-0.1,0.1,0.1,0.3,0.2,0.2c1.1-0.4,2.2-0.8,3.3-1.3c-0.8,0.8-1.4,1.7-2,2.5
			c-0.1,0.1,0.1,0.3,0.2,0.2c1.5-0.4,2.9-1,4.3-1.7c0.5-0.3,1-0.5,1.5-0.9c-0.6,1-1.2,2-1.6,3.1c-0.1,0.1,0.1,0.3,0.2,0.2
			c0.9-0.5,1.8-1.1,2.7-1.8c-0.9,1-1.4,2.3-1.3,3.8c0.3,3,2.8,4.3,5.4,4.8c-1.1,1.1-1.7,2.7-1.7,4.2c0,2.3,1.3,4.2,3.2,5.5
			c0.7,0.5,1.4,0.8,2.2,1.1c-0.4,0.3-0.9,0.5-1.3,0.9c-1.4,1-2.9,2.5-2.8,4.4c0.1,2.1,2.3,3,4,3.8c0.1,0,0.2,0.1,0.2,0.1
			c-1,0.5-2,1.2-2.7,2.1c-1.4,1.8-0.7,3.9,1,5.2c0.8,0.6,2,1.1,3,1.6c-0.7,0.5-1.2,1-1.7,1.7c-0.7,1.1-0.8,2.4-0.1,3.5
			c0.3,0.6,0.8,0.9,1.3,1.3c0.5,0.4,1,0.7,1.2,1.2c0.1,1,0.2,2.1,0.4,3.1H0V0h89.7v83h-0.9l0.9-0.6h-45c0.1-1.1,0.2-2.3,0.3-3.4
			c0.3-0.4,0.7-0.7,1.1-1c0.5-0.4,1-0.8,1.3-1.3c0.3-0.5,0.7-2.3-0.1-3.5c-0.5-0.6-1-1.2-1.7-1.7c5.6-2.3,5.2-5.3,4-6.8
			c-0.7-0.9-1.6-1.6-2.7-2.1c0.1,0,0.2-0.1,0.2-0.1c1.7-0.7,3.9-1.6,4-3.8c0.1-1.9-1.4-3.4-2.8-4.4c-0.4-0.3-0.9-0.6-1.3-0.9
			c0.8-0.3,1.5-0.7,2.2-1.1c1.9-1.2,3.2-3.2,3.2-5.5c0-1.6-0.6-3.1-1.7-4.2c2.6-0.5,5-1.8,5.4-4.8c0.2-1.7-0.6-3.8-0.9-4.5
			c0.4,0.3,0.9,0.6,1.3,0.8c0.1,0.1,0.3,0,0.2-0.2C56.8,33.6,56.6,33.3,56.5,32.9z"/>
		<path id="XMLID_917_" class="st0" d="M44.3,82.5c0,0-0.1-0.1-0.2-0.1c0,0,0,0,0,0h0.1C44.3,82.4,44.3,82.5,44.3,82.5z"/>
		<polygon id="XMLID_916_" class="st0" points="0,83 0,82.4 0.9,83 		"/>
		<path id="XMLID_915_" class="st0" d="M44.6,83c0-0.2,0-0.4,0.1-0.6h45L88.8,83H44.6z"/>
		<path id="XMLID_912_" class="st0" d="M43.8,82.1c0.1,0.1,0.1,0.1,0.2,0.2c0,0,0.1,0,0.1,0.1h-0.6c-0.1-0.4-0.1-0.8-0.2-1.2
			c0,0,0.1,0,0.2,0c0.1,0.2,0.3,0.3,0.5,0.5c0,0.1-0.1,0.2-0.2,0.3c-0.1-0.1-0.1-0.1-0.2-0.2c0,0-0.1,0,0,0.1
			C43.5,81.9,43.6,82,43.8,82.1c-0.1,0-0.1,0.1-0.2,0.2c0,0,0,0.1,0.1,0C43.7,82.3,43.7,82.2,43.8,82.1z"/>
		<path id="XMLID_380_" class="st0" d="M45.1,66.7c-0.1,0.1-0.2,0.2-0.3,0.4c0.1,0.1,0.2,0.1,0.3,0.2C45.1,67.1,45.1,66.9,45.1,66.7
			z M45.1,68.9c0,0,0-0.1,0-0.2C45,68.8,45,68.8,45.1,68.9C45,68.9,45,68.9,45.1,68.9z M34.1,36.4c0-0.1,0-0.2,0-0.2
			C34.1,36.2,34.1,36.3,34.1,36.4C34.1,36.4,34.1,36.4,34.1,36.4z M42.2,55c0.1,0,0.2-0.1,0.3-0.1l-0.1-0.1
			C42.3,54.9,42.2,55,42.2,55z M47.3,75.4C47.4,75.4,47.4,75.4,47.3,75.4c0.1,0,0.1-0.1,0.1-0.1C47.4,75.3,47.4,75.3,47.3,75.4
			C47.4,75.3,47.4,75.4,47.3,75.4z M48.4,52.3c0.1,0,0.2-0.1,0.2-0.1c0,0-0.1,0-0.1,0C48.5,52.2,48.5,52.3,48.4,52.3z M45.1,33.3
			c0-0.1,0-0.1,0-0.2C45.1,33.1,45,33.2,45.1,33.3C45,33.2,45.1,33.3,45.1,33.3z M42.2,76.9c-0.1-0.2-0.1-0.3-0.2-0.5
			c0,0.1,0,0.1,0,0.2C42,76.8,42.1,76.8,42.2,76.9z M45.1,66.4c0-0.3,0-0.5,0-0.8c-0.1,0.2-0.3,0.3-0.4,0.5
			C44.8,66.2,45,66.3,45.1,66.4z M46.1,19.5c0,0.2-0.1,0.3-0.1,0.5c0.2,0.1,0.3,0.3,0.5,0.4c0-0.1,0.1-0.2,0.1-0.4
			C46.4,19.8,46.2,19.6,46.1,19.5z M53.6,41.2c-0.1,0-0.2-0.1-0.4-0.1c-0.2,0.2-0.5,0.5-0.7,0.7c0.1,0,0.2-0.1,0.3-0.1
			C53.1,41.5,53.3,41.4,53.6,41.2z M46.7,20.6c0-0.1,0-0.3,0-0.4c0,0.1-0.1,0.2-0.1,0.3C46.6,20.5,46.7,20.6,46.7,20.6z M49,69
			c0-0.1-0.1-0.1-0.1-0.1c-0.1,0.2-0.2,0.3-0.3,0.5C48.8,69.2,48.9,69.1,49,69z M44.2,81.3c-0.1,0.1-0.1,0.2-0.2,0.3
			c0.1,0.1,0.2,0.2,0.3,0.3c0-0.1,0-0.3,0-0.4C44.4,81.4,44.3,81.3,44.2,81.3z M44.5,58c-0.1,0.2-0.2,0.3-0.3,0.4c0,0,0.1,0,0.1,0
			c0,0,0.1,0,0.2,0.1c0.1-0.1,0.2-0.3,0.4-0.4c-0.1,0-0.1-0.1-0.2-0.1C44.6,58,44.6,58,44.5,58z M43.8,42.7
			c-0.1,0.1-0.2,0.2-0.3,0.3c0.2-0.1,0.4-0.1,0.7-0.1C44.1,42.8,44,42.8,43.8,42.7z M38,41.6c0.1,0,0.2-0.1,0.3-0.2
			c-0.1,0-0.2-0.1-0.3-0.2c-0.1,0.1-0.2,0.3-0.3,0.4c0.1,0,0.1,0,0.2,0.1C37.9,41.7,38,41.6,38,41.6z M46,62.6c0.1,0,0.1,0,0.2-0.1
			c0,0-0.1,0-0.1-0.1C46.1,62.5,46,62.5,46,62.6z M33.8,37.3c0.1,0.1,0.2,0.2,0.4,0.2c0,0,0,0,0,0c-0.1-0.2-0.1-0.4-0.1-0.6
			C34,37.1,33.9,37.2,33.8,37.3z M45.7,53.5c0.3-0.1,0.7-0.3,1-0.4c-0.2,0-0.4-0.1-0.5-0.2C46,53.1,45.9,53.3,45.7,53.5z M44.5,77.6
			c0,0,0.1,0.1,0.1,0.1c0-0.1,0.1-0.2,0.1-0.2c0,0,0-0.1,0-0.1c0,0,0,0-0.1,0C44.6,77.4,44.6,77.5,44.5,77.6z M55.2,39.6
			c0.2-0.3,0.3-0.5,0.4-0.8c0,0-0.1,0-0.1-0.1c-0.2,0.2-0.4,0.4-0.6,0.7c0,0,0,0,0,0C55,39.5,55.1,39.5,55.2,39.6z M42.5,52.3
			c0.2-0.1,0.4-0.2,0.7-0.3c-0.1,0-0.2-0.1-0.3-0.1C42.8,52.1,42.7,52.2,42.5,52.3z M41.2,50.7c-0.2-0.1-0.4-0.3-0.6-0.4
			c0,0.1-0.1,0.1-0.1,0.1C40.7,50.6,40.9,50.7,41.2,50.7C41.1,50.8,41.2,50.8,41.2,50.7z M51.5,46.1c-0.1,0.2-0.2,0.4-0.3,0.7
			c0.1,0.1,0.2,0.1,0.3,0.2c0,0,0.1,0,0.1,0.1c0.1-0.2,0.2-0.4,0.2-0.7C51.7,46.3,51.6,46.3,51.5,46.1
			C51.5,46.2,51.5,46.2,51.5,46.1z M44.3,67.4c0.1-0.1,0.2-0.3,0.3-0.4c-0.1-0.1-0.3-0.3-0.4-0.5c0,0,0,0,0,0
			c-0.1,0.2-0.3,0.3-0.5,0.5C43.9,67.2,44.1,67.3,44.3,67.4z M45.2,18.6c0-0.1,0.1-0.2,0.1-0.3c-0.2-0.1-0.3-0.2-0.5-0.3
			c0,0.1-0.1,0.2-0.2,0.4C44.8,18.5,45,18.5,45.2,18.6z M40.7,44c-0.1,0.1-0.1,0.2-0.2,0.3c0.1-0.1,0.2-0.1,0.3-0.2
			C40.8,44,40.8,44,40.7,44z M55.7,38.5c0,0-0.1,0.1-0.1,0.1c0,0,0,0,0.1,0C55.6,38.6,55.6,38.6,55.7,38.5z M47.2,76.4
			c-0.1-0.1-0.2-0.2-0.2-0.3c-0.1,0.2-0.3,0.5-0.4,0.7c0,0,0,0.1,0.1,0.1c0,0.1,0.1,0.1,0.2,0.2C46.9,76.8,47,76.6,47.2,76.4z
			 M46.9,42.6C46.9,42.6,46.8,42.6,46.9,42.6c0,0.1,0.1,0.1,0.1,0.1C47,42.6,46.9,42.6,46.9,42.6z M50.6,57.5
			C50.6,57.5,50.6,57.5,50.6,57.5c0-0.2-0.1-0.3-0.2-0.5c0,0.1-0.1,0.2-0.1,0.3C50.3,57.3,50.5,57.4,50.6,57.5z M44.3,79.2
			c0,0,0.1,0.1,0.1,0.2c0.1-0.2,0.2-0.4,0.3-0.5c0.1-0.1,0.1-0.2,0.2-0.3c-0.1-0.1-0.1-0.2-0.2-0.3C44.6,78.5,44.5,78.8,44.3,79.2
			C44.3,79.2,44.3,79.2,44.3,79.2z M44.3,79.2c-0.1,0.4-0.2,0.9,0,1.4c0-0.4,0.1-0.8,0.2-1.2c0,0,0,0,0-0.1
			C44.4,79.3,44.3,79.3,44.3,79.2z M47.1,74.1c0.1,0.1,0.2,0.2,0.3,0.3c0,0,0,0,0,0c0-0.2-0.1-0.3-0.2-0.4
			C47.2,74,47.1,74.1,47.1,74.1z M44.6,47c0.2,0.1,0.4,0.2,0.6,0.3c0-0.3,0-0.6,0-0.9C45,46.6,44.8,46.8,44.6,47
			C44.6,47,44.6,47,44.6,47z M51.2,44C51.2,44,51.3,44,51.2,44c-0.1-0.3-0.2-0.5-0.4-0.7c-0.1,0.1-0.1,0.3-0.2,0.4
			C50.8,43.8,51,43.9,51.2,44z M45.7,35.6c-0.1,0.1-0.2,0.2-0.3,0.3c0,0,0.1,0,0.2,0.1c0.1,0,0.3,0,0.4-0.1c0,0,0.1-0.1,0.2-0.2
			C45.9,35.7,45.8,35.7,45.7,35.6C45.7,35.6,45.7,35.6,45.7,35.6z M44.3,65c0.3,0.1,0.6,0.3,0.8,0.4v0c0-0.2,0-0.3,0-0.5
			c-0.2,0-0.4-0.1-0.5-0.3C44.5,64.8,44.4,64.9,44.3,65z M43,78.6c0-0.1-0.1-0.2-0.2-0.3c0,0.1,0,0.1,0,0.2
			C42.9,78.5,43,78.5,43,78.6z M40.7,64.8c-0.1,0.2-0.2,0.3-0.3,0.5c0,0,0,0,0,0c0.1-0.1,0.3-0.3,0.4-0.4
			C40.8,64.9,40.8,64.8,40.7,64.8z M49.2,66.2c0.1,0.1,0.1,0.1,0.2,0.2c0.1-0.1,0.2-0.3,0.2-0.4c-0.1-0.1-0.1-0.2-0.2-0.3
			C49.4,65.9,49.3,66.1,49.2,66.2z M47.3,75.5c-0.1,0.2-0.2,0.3-0.3,0.5c0.1,0.1,0.1,0.2,0.2,0.3c0.1-0.2,0.2-0.5,0.2-0.7
			C47.3,75.6,47.3,75.6,47.3,75.5z M44.9,33.3c-0.1,0.2-0.3,0.4-0.5,0.5c0.2,0.1,0.3,0.2,0.5,0.3c0-0.1,0.1-0.1,0.1-0.2c0,0,0,0,0,0
			c0-0.2,0-0.3,0-0.5c0,0,0,0,0,0C45,33.4,44.9,33.4,44.9,33.3z M39.5,40.4c-0.1,0.1-0.2,0.2-0.3,0.4c0.1,0,0.2,0.1,0.3,0.1
			c0.4-0.1,0.9-0.3,1.3-0.4C40.4,40.5,39.9,40.5,39.5,40.4z M44.5,22.9c-0.4-0.2-0.8-0.4-1.2-0.7c-0.1,0.1-0.2,0.1-0.3,0.2
			c0.3,0.2,0.6,0.4,1.1,0.5C44.2,23,44.4,22.9,44.5,22.9z M44.2,77c0,0.1-0.1,0.2-0.2,0.3c0.1,0.1,0.2,0.2,0.3,0.3
			c0.1-0.1,0.1-0.2,0.2-0.2c-0.1-0.1-0.2-0.1-0.2-0.2C44.3,77.1,44.2,77,44.2,77z M41.1,43.5c-0.1,0.1-0.2,0.3-0.3,0.4
			c0,0,0.1,0,0.1,0.1c0,0,0,0,0,0c0.2-0.1,0.4-0.2,0.6-0.3C41.4,43.6,41.2,43.5,41.1,43.5z M51.8,45.1c-0.1-0.2-0.2-0.5-0.3-0.7
			c-0.1,0-0.1-0.1-0.2-0.1c-0.1,0.2-0.2,0.3-0.3,0.5c0.2,0.1,0.5,0.3,0.7,0.4C51.7,45.2,51.7,45.1,51.8,45.1z M44.7,67
			c0.1-0.1,0.2-0.3,0.3-0.4c0,0,0.1,0,0.1,0c0,0,0-0.1,0-0.1c-0.2-0.1-0.3-0.2-0.5-0.3c-0.1,0.1-0.2,0.2-0.3,0.4c0,0,0,0,0,0
			C44.4,66.7,44.5,66.8,44.7,67z M43.7,81.1c0,0.1-0.1,0-0.1-0.1c0,0,0.1-0.1,0.1-0.2c0,0,0-0.1-0.1-0.1c0,0.1-0.1,0.2-0.1,0.3
			c0.2,0.2,0.3,0.3,0.5,0.4c0.1-0.1,0.1-0.2,0.2-0.3c-0.1,0-0.1-0.1-0.2-0.2c-0.1,0-0.1-0.1-0.1-0.1C43.7,81,43.7,81,43.7,81.1z
			 M42.4,52.4c0.2-0.2,0.3-0.3,0.5-0.5c-0.2,0-0.3-0.1-0.5-0.2c-0.1,0.2-0.3,0.3-0.4,0.5C42.1,52.3,42.2,52.3,42.4,52.4z M45.1,46.1
			c0-0.3,0-0.6,0-0.9c0,0,0,0,0,0c-0.1,0.2-0.2,0.5-0.4,0.7C44.8,45.9,45,46,45.1,46.1z M47.5,52.5c-0.1,0.1-0.1,0.2-0.2,0.4
			c0.2-0.1,0.3-0.1,0.5-0.2C47.7,52.6,47.6,52.6,47.5,52.5z M44.6,69.3c-0.3,0.4-0.6,0.7-0.9,1.1c0,0,0,0,0,0c0,0,0,0,0.1,0
			c0.1-0.1,0.3-0.2,0.4-0.2c0.3-0.1,0.5-0.3,0.8-0.4c0-0.1,0-0.2,0-0.2C44.9,69.5,44.8,69.4,44.6,69.3z M41.8,22
			c0.2,0.2,0.3,0.4,0.5,0.5c0,0,0,0,0,0c0.1,0,0.2,0,0.3-0.1c-0.2-0.1-0.3-0.3-0.4-0.4C42,22,41.9,22,41.8,22z M34.9,35.2
			c0.2-0.1,0.5-0.2,0.7-0.3c-0.1-0.1-0.3-0.1-0.4-0.2C35.1,34.9,35,35,34.9,35.2C34.9,35.2,34.9,35.2,34.9,35.2z M52.4,41.8
			c-0.2-0.1-0.5-0.2-0.7-0.4c-0.2,0.3-0.5,0.5-0.7,0.8C51.4,42.2,51.9,42,52.4,41.8C52.3,41.9,52.3,41.8,52.4,41.8z M46.1,21.3
			c-0.1,0.2-0.3,0.3-0.4,0.5c0.2,0.1,0.3,0.2,0.5,0.3c0.1-0.1,0.2-0.3,0.3-0.4C46.3,21.5,46.2,21.4,46.1,21.3z M65.1,21.1
			c0,0,5.3,2,7.9,3.1c0.1,0,0,0.1,0,0.1c-1.9-0.3-3.8-1-5.7-1.8c0.1,0,0.2,0.1,0.3,0.1c1.4,0.7,2.8,1.5,4.2,2.3
			c0.1,0.1,0.1,0.3-0.1,0.3c-0.2,0-0.4,0-0.6,0c1.7,0.3,3.3,0.4,5,0.1C72.9,22.7,69,21.4,65.1,21.1z M44.5,38.8
			c-0.1,0.2-0.3,0.3-0.4,0.5c0.3,0.2,0.5,0.4,0.8,0.6c0.1-0.1,0.2-0.2,0.2-0.3c0-0.1,0-0.3,0-0.4c0,0,0,0,0,0
			C44.8,39.1,44.7,38.9,44.5,38.8z M42,61.7c-0.1,0.1-0.2,0.2-0.3,0.3c0,0,0.1,0,0.2,0c0.1,0,0.2-0.1,0.3-0.1c0,0,0-0.1,0-0.1
			C42.2,61.8,42.1,61.7,42,61.7z M45.2,49.6C45.2,49.6,45.2,49.6,45.2,49.6c0-0.1-0.1-0.1-0.1-0.2c-0.1,0.1-0.2,0.3-0.4,0.4
			c0.2,0.1,0.3,0.1,0.5,0.2C45.2,49.9,45.2,49.8,45.2,49.6z M44.5,68.7c-0.1-0.1-0.1-0.1-0.2-0.2c-0.1,0.1-0.1,0.2-0.2,0.3
			c0.1,0.1,0.3,0.2,0.5,0.3c0.1-0.1,0.1-0.2,0.2-0.2C44.7,68.9,44.6,68.8,44.5,68.7z M45,40c0,0,0.1,0.1,0.1,0.1c0-0.1,0-0.2,0-0.3
			C45,39.8,45,39.9,45,40z M45.1,37.2c0,0,0-0.1,0-0.1c-0.1-0.1-0.2-0.2-0.2-0.3c0,0.1,0,0.2,0.1,0.3C45,37.1,45,37.1,45.1,37.2z
			 M40.5,43.1c-0.1,0.2-0.2,0.3-0.3,0.5c0.1,0.1,0.3,0.1,0.4,0.2c0.1-0.1,0.2-0.3,0.3-0.4C40.8,43.3,40.7,43.2,40.5,43.1z
			 M46.7,77.1c-0.1-0.1-0.1-0.2-0.2-0.2c0,0,0,0,0,0c-0.2,0.2-0.3,0.5-0.4,0.7c0,0,0.1,0.1,0.1,0.1c0.1-0.1,0.3-0.2,0.4-0.4
			C46.6,77.2,46.6,77.2,46.7,77.1z M47.7,32.2c-0.4-1.1-0.7-2.3-0.8-3.5c0,0.1,0,0.3,0,0.5c0,1.2,0.1,2.4,0.2,3.6
			C47.3,32.6,47.4,32.4,47.7,32.2z M34.2,35.5c0.1,0,0.2,0.1,0.3,0.1c0,0,0,0,0,0c0.1-0.1,0.2-0.3,0.3-0.4c-0.1,0-0.2-0.1-0.4-0.1
			C34.3,35.2,34.3,35.3,34.2,35.5z M55,38.3c0.1,0.1,0.3,0.2,0.4,0.3c0.1-0.1,0.2-0.2,0.3-0.3c0-0.1,0-0.2,0.1-0.3
			c-0.1,0-0.2-0.1-0.2-0.2c0,0,0,0-0.1,0C55.3,38,55.2,38.2,55,38.3z M42.9,36.6c0,0.1,0,0.2,0,0.3c0.2-0.2,0.3-0.5,0.3-0.8
			c-0.1,0-0.1,0.1-0.2,0.1C43,36.4,42.9,36.5,42.9,36.6C42.9,36.6,42.9,36.6,42.9,36.6z M44.9,31.8c-0.1,0.3-0.3,0.7-0.6,1
			c0.2,0.1,0.3,0.2,0.5,0.3c0.1-0.1,0.2-0.2,0.3-0.3c0-0.3,0-0.6,0-1C45.1,31.9,45.1,31.9,44.9,31.8C45,31.8,45,31.8,44.9,31.8z
			 M45.3,18.7c0.2,0.1,0.4,0.3,0.6,0.4c0-0.1,0-0.2,0.1-0.3c-0.2-0.2-0.3-0.3-0.5-0.4C45.4,18.5,45.4,18.6,45.3,18.7z M42.5,54.9
			c0.2-0.1,0.4-0.2,0.6-0.3c0,0,0.1-0.1,0.1-0.1c-0.2-0.1-0.3-0.2-0.5-0.3c-0.1,0.2-0.3,0.4-0.4,0.6C42.4,54.8,42.4,54.8,42.5,54.9z
			 M49.8,65.9c-0.1-0.3-0.2-0.5-0.4-0.8c0,0.1-0.1,0.2-0.1,0.3c0.1,0.1,0.1,0.2,0.2,0.3c0,0,0-0.1,0-0.1c0,0,0.1,0,0.1,0
			c0,0,0,0.1-0.1,0.1C49.6,65.8,49.7,65.9,49.8,65.9C49.7,65.9,49.7,65.9,49.8,65.9L49.8,65.9z M52.9,32.7c-0.2-0.3-0.4-0.6-0.6-0.9
			c0,0.2,0.1,0.5,0.1,0.8C52.6,32.6,52.8,32.6,52.9,32.7z M36,30.8c-0.2,0.6-0.5,1.2-0.8,1.7c0.2,0,0.4-0.1,0.6-0.1
			C35.9,31.9,35.9,31.3,36,30.8z M40.3,31.4c0,0.4,0.1,0.9,0.2,1.3c0,0.1,0.1,0.1,0.1,0.2c0,0,0,0,0,0c0.1,0,0.2,0,0.3-0.1
			c0-1.1,0-2.2,0-3.4h0C40.7,30.1,40.5,30.7,40.3,31.4C40.3,31.4,40.3,31.4,40.3,31.4z M38.8,40.3c-0.1,0.1-0.1,0.2-0.2,0.2
			c0.1,0,0.3,0.1,0.4,0.1c0.1-0.1,0.2-0.2,0.3-0.3C39.1,40.4,38.9,40.4,38.8,40.3z M55.1,39.7c-0.1,0-0.2-0.1-0.3-0.2
			c-0.2,0.3-0.5,0.5-0.7,0.8c0.1,0.1,0.3,0.1,0.4,0.2C54.7,40.3,54.9,40,55.1,39.7z M43,72.8C43,72.7,42.9,72.7,43,72.8
			c-0.1,0-0.1,0.1-0.2,0.2C42.8,72.9,42.9,72.8,43,72.8z M44.9,73.8c0,0-0.1,0.1-0.1,0.1c0,0,0.1,0,0.1,0
			C44.9,73.9,44.9,73.9,44.9,73.8z M40.3,44.4C40.3,44.4,40.3,44.4,40.3,44.4c0.1-0.2,0.2-0.3,0.3-0.5c-0.1-0.1-0.3-0.1-0.4-0.2
			c-0.2,0.3-0.4,0.5-0.5,0.8c0.1,0.1,0.2,0.2,0.3,0.2C40.1,44.6,40.2,44.5,40.3,44.4z M49.8,66.2C49.8,66.2,49.8,66.2,49.8,66.2
			c-0.1,0.1-0.2,0.2-0.3,0.3c0.1,0.1,0.2,0.2,0.3,0.3c0,0,0-0.1,0.1-0.1c0,0,0,0,0.1,0C49.9,66.6,49.9,66.4,49.8,66.2
			C49.9,66.3,49.8,66.3,49.8,66.2z M45.2,49.1c0-0.3,0-0.6,0-0.9c-0.2,0.3-0.4,0.5-0.6,0.8c0.1,0.1,0.3,0.2,0.5,0.3
			C45.1,49.2,45.2,49.1,45.2,49.1z M47.8,69.8c0.1-0.2,0.3-0.5,0.4-0.7c-0.1-0.1-0.1-0.2-0.2-0.3c-0.1,0.2-0.3,0.5-0.4,0.7
			C47.6,69.6,47.7,69.6,47.8,69.8C47.8,69.8,47.8,69.8,47.8,69.8z M34.5,38.5c0.1,0,0.2,0.1,0.4,0.1c-0.1-0.1-0.2-0.2-0.2-0.3
			C34.6,38.4,34.5,38.5,34.5,38.5z M55.2,35.5c0,0,0.1,0.1,0.2,0.1c0,0,0,0,0,0c0,0,0.1,0,0,0.1c0,0,0,0,0,0c0,0,0.1,0.1,0.1,0.1
			c0,0,0,0,0-0.1c-0.1-0.3-0.2-0.6-0.4-0.8c0,0,0,0,0,0c-0.1,0.1-0.2,0.2-0.3,0.3C55,35.3,55.1,35.4,55.2,35.5z M62.6,26.6
			c1.4,1,2.9,2,4.6,2.6c0.1,0,0.1,0.2,0,0.1c-2.1-0.5-3.9-1.9-5.7-3.1c0.1,0.1,0.2,0.2,0.2,0.3c0.1,0.2,0.3,0.3,0.4,0.4
			c0.3,0.3,0.6,0.6,0.9,1c0.4,0.4,0.7,0.9,1,1.3c1.6,0.4,3.1,0.8,4.8,0.9c-0.7-0.7-1.4-1.4-2.1-2.1C65.3,27.7,63.9,27.2,62.6,26.6z
			 M55.6,36.8c0.1,0.1,0.2,0.1,0.3,0.2c0-0.2,0-0.3-0.1-0.5C55.7,36.6,55.6,36.7,55.6,36.8C55.5,36.8,55.6,36.8,55.6,36.8z M45.4,37
			c-0.1-0.2-0.2-0.4-0.2-0.6c-0.1,0-0.2,0-0.3,0C45,36.6,45.1,36.8,45.4,37z M41.8,75.9c0-0.2,0-0.5,0-0.7c0,0,0,0,0,0
			c-0.1,0.2-0.1,0.3-0.2,0.5C41.7,75.7,41.8,75.8,41.8,75.9z M44.8,37.3C44.8,37.3,44.8,37.3,44.8,37.3c-0.2,0.1-0.3,0.2-0.4,0.3
			c0.1,0.1,0.3,0.3,0.5,0.4c0,0,0.1-0.1,0.1-0.1c0,0,0,0,0,0c0-0.1,0-0.3,0-0.4c0,0,0,0,0,0c0,0-0.1,0-0.1-0.1
			C44.9,37.3,44.9,37.3,44.8,37.3z M44.9,74.5c0-0.1,0-0.3,0-0.4c-0.1,0-0.1,0-0.2-0.1c-0.1,0.1-0.2,0.2-0.3,0.3
			C44.6,74.4,44.8,74.5,44.9,74.5z M45.1,26.7c-0.1,0.2-0.3,0.5-0.5,0.7c0,0,0,0,0,0c0.2,0.1,0.4,0.2,0.5,0.4c0,0,0,0.1,0,0.1
			c-0.2-0.1-0.4-0.2-0.5-0.4c-0.1,0.2-0.3,0.3-0.4,0.5c0.2,0.1,0.4,0.3,0.6,0.4c0.2-0.2,0.3-0.4,0.5-0.6c0-0.4,0-0.7,0-1.1
			C45.2,26.8,45.2,26.8,45.1,26.7C45.1,26.8,45.1,26.8,45.1,26.7z M45.3,42.7c0-0.1,0.1-0.1,0.1-0.2c-0.3-0.2-0.6-0.4-0.9-0.6
			c-0.2,0.2-0.4,0.4-0.6,0.7c0.1,0.1,0.3,0.1,0.4,0.2C44.7,42.8,45,42.8,45.3,42.7z M47.6,61.3c-0.2,0.3-0.3,0.5-0.4,0.8
			c0.3-0.2,0.7-0.3,1-0.5C48,61.5,47.8,61.4,47.6,61.3z M46.2,21.2c0.1,0.1,0.2,0.2,0.3,0.3c0.1-0.2,0.1-0.3,0.2-0.5c0,0,0,0,0,0
			c0,0,0,0,0,0c-0.1-0.1-0.1-0.1-0.2-0.2C46.4,20.8,46.3,21,46.2,21.2z M64.8,27.1c1.3,0.4,2.6,0.7,3.9,0.8
			c-0.9-0.8-1.9-1.6-2.9-2.3c-1.1-0.8-3.4-2-3.4-2.1c-1.3-0.1-2.6-0.3-3.9-0.7c1.2,0.6,2.4,1.4,3.6,2c1.4,0.7,2.9,1.3,4.4,1.9
			c0.1,0,0,0.1-0.1,0.1c-1.6-0.4-3.1-1-4.5-1.8c-1-0.5-2.1-1-3.1-1.6c0.6,0.5,1.2,1.1,1.8,1.7c0,0,0,0,0,0
			C62,26,63.3,26.7,64.8,27.1z M39.8,66.7c0-0.3,0.1-0.5,0.2-0.7c-0.1-0.1-0.3-0.2-0.4-0.3c-0.1,0.2-0.2,0.5-0.3,0.7
			c0.1,0.1,0.2,0.3,0.3,0.3c0,0,0.1,0.1,0.1,0.1C39.8,66.8,39.8,66.8,39.8,66.7z M48.6,69.3c0.1-0.2,0.2-0.4,0.3-0.6
			c0-0.1-0.1-0.2-0.1-0.2c-0.1,0.2-0.2,0.4-0.4,0.6C48.4,69.2,48.5,69.3,48.6,69.3z M43.7,80.6c0,0,0.1,0.1,0.1,0.1
			c0.1-0.1,0.1-0.2,0.2-0.3c0-0.1,0-0.2,0-0.3c0,0-0.1,0-0.1-0.1c0,0,0,0,0,0.1C43.7,80.3,43.7,80.4,43.7,80.6z M71,24.8
			c-1-0.6-2-1.2-3.1-1.7c-1.2-0.6-2.4-1.4-3.8-1.7c-0.8,0.1-1.6,0.1-2.4,0c0.8,0.3,1.7,0.6,2.5,0.9c1.3,0.4,2.5,0.9,3.8,1.4
			c0.1,0,0,0.1,0,0.1c-1.4-0.4-2.8-0.8-4.1-1.3c-1.1-0.4-2.3-0.7-3.3-1.1c0.9,0.6,2.7,1.8,2.7,1.8C65.7,24.3,68.4,24.6,71,24.8z
			 M44.9,40.1c0,0-0.1,0.1-0.1,0.1c0.1,0,0.3,0,0.4,0c0,0,0,0,0,0c0,0,0,0-0.1,0C45,40.1,44.9,40.1,44.9,40.1z M42.1,73.9
			c0.1-0.2,0.2-0.3,0.3-0.5c-0.1-0.1-0.2-0.2-0.3-0.4c-0.1,0.2-0.2,0.5-0.3,0.7c0.1,0.1,0.2,0.2,0.3,0.3
			C42.1,74.1,42.1,74,42.1,73.9C42.1,73.9,42.1,73.9,42.1,73.9C42,73.9,42,73.9,42.1,73.9C42.1,73.9,42.1,73.9,42.1,73.9z
			 M39.6,57.4c0.1-0.3,0.3-0.5,0.5-0.8c-0.1,0-0.1-0.1-0.2-0.1c-0.2,0.3-0.3,0.6-0.5,0.8C39.5,57.4,39.6,57.4,39.6,57.4z M16,30.3
			c1-0.3,2.1-0.2,3.2-0.5c1.2-0.4,2.2-1,3.3-1.6c-0.4,0.1-0.9,0.3-1.4,0.4c-0.2,0-0.3-0.2-0.2-0.3c0.5-0.4,0.9-0.8,1.4-1.2
			c-0.6,0.4-1.3,0.7-2,1c-0.8,0.4-1.6,0.9-2.5,1.3c0,0,0,0,0,0c0.8-0.6,1.6-1.1,2.5-1.6c0.5-0.3,0.9-0.5,1.4-0.8
			c-0.9,0.3-1.8,0.5-2.7,0.7C17.9,28.4,16.9,29.2,16,30.3z M44.4,26.4c-0.2,0.2-0.3,0.4-0.5,0.6c0.2,0.2,0.4,0.3,0.6,0.4
			c0,0,0,0,0,0c0.2-0.2,0.3-0.5,0.5-0.6C44.8,26.6,44.6,26.5,44.4,26.4z M44.4,37.5c0.1-0.1,0.2-0.2,0.3-0.3
			c-0.1-0.1-0.2-0.2-0.2-0.3c0,0-0.2-0.2-0.4-0.3c-0.1,0.1-0.3,0.2-0.4,0.3C43.9,37.1,44.2,37.3,44.4,37.5z M29.8,17.9
			c-1.3,0.3-2.6,0.5-3.9,0.9c-1.3,0.5-2.4,1-3.6,1.8c3.1,0.4,6.4,0.7,9.1-1.2c-0.4-0.1-0.8-0.3-1.1-0.6c-1.6,0.8-3.4,1.2-5.2,1.3
			c0,0,0,0,0,0c1.7-0.3,3.3-0.7,4.9-1.5C29.9,18.4,29.8,18.2,29.8,17.9z M48.7,68.3c0.1-0.2,0.3-0.4,0.4-0.6c0-0.1-0.1-0.1-0.1-0.2
			C48.9,67.7,48.8,67.9,48.7,68.3C48.7,68.2,48.7,68.2,48.7,68.3z M49.7,68c0.1-0.3,0.2-0.5,0.2-0.8c0,0-0.1-0.1-0.1-0.1
			c-0.1,0.2-0.2,0.5-0.3,0.7C49.5,67.9,49.6,68,49.7,68C49.6,68.1,49.7,68,49.7,68z M41.7,52.8c-0.1,0-0.1,0-0.2-0.1
			c-0.1,0.1-0.2,0.2-0.3,0.3C41.4,53,41.6,52.9,41.7,52.8z M50.5,58.7C50.5,58.6,50.6,58.6,50.5,58.7c0.1-0.1,0.1-0.1,0.1,0
			C50.6,58.7,50.6,58.7,50.5,58.7c0.1,0.1,0.2,0.1,0.2,0.1c0-0.3,0-0.5,0-0.8c0-0.1,0-0.1,0-0.2c-0.1,0-0.1-0.1-0.2-0.1
			c-0.1,0.2-0.3,0.5-0.4,0.7C50.2,58.4,50.3,58.5,50.5,58.7C50.5,58.6,50.5,58.6,50.5,58.7z M47,62.2c-0.2-0.1-0.3-0.3-0.5-0.4
			c-0.1,0.2-0.3,0.4-0.4,0.6c0,0,0.1,0.1,0.1,0.1C46.5,62.4,46.8,62.3,47,62.2z M44.4,36.2c0,0.3,0.1,0.5,0.3,0.8c0-0.1,0-0.2,0-0.3
			c0,0,0,0,0,0c-0.1-0.1-0.1-0.2-0.1-0.4C44.6,36.2,44.5,36.2,44.4,36.2z M45.9,62.6c0-0.1,0.1-0.1,0.1-0.2
			c-0.2-0.1-0.4-0.2-0.5-0.3c-0.2,0.3-0.3,0.5-0.5,0.8c0.1,0,0.1,0,0.2,0.1C45.4,62.8,45.7,62.7,45.9,62.6z M49.1,60.1
			c-0.1,0.2-0.3,0.5-0.4,0.7c0.1,0.1,0.3,0.2,0.4,0.3c0,0,0,0,0,0c0.1-0.2,0.2-0.5,0.3-0.7C49.3,60.3,49.2,60.2,49.1,60.1z
			 M41.6,55.4c-0.2-0.1-0.3-0.2-0.5-0.2c-0.1,0.1-0.2,0.3-0.3,0.4c0,0,0.1,0,0.1,0c0,0,0.1,0.1,0.1,0.1
			C41.3,55.6,41.4,55.5,41.6,55.4z M46.1,19.3c0.2,0.1,0.3,0.3,0.4,0.4c-0.1-0.2-0.2-0.4-0.4-0.6C46.1,19.1,46.1,19.2,46.1,19.3z
			 M42.3,37c0.3-0.1,0.4-0.4,0.5-0.7c-0.1,0-0.2,0-0.3,0C42.5,36.5,42.4,36.8,42.3,37z M15,24.7c0.5-0.2,2.4-0.7,3.2-1.2
			c1.6-1,3.4-2,5.2-2.4c-0.5-0.1-1-0.1-1.4-0.2c-0.1,0-1.3,0.2-1.9,0.5c-0.9,0.4-1.7,0.8-2.6,1.2c-1.6,0.8-3.2,1.8-4.7,2.8
			c2,0.1,3.9-0.1,5.8-0.5c0,0,1.1-0.3,1.8-0.8c-1,0.1-2,0.1-3,0.1C17.3,24.2,15.7,24.6,15,24.7C14.9,24.7,14.9,24.7,15,24.7z
			 M62.8,20.4c-1.8-0.4-3.5-1.1-5.2-1.8c0,0,0,0,0,0c-0.2,0.3-0.5,0.6-0.8,0.8c0.3,0.2,0.6,0.3,0.9,0.5c0.1,0.1,0.3,0.1,0.4,0.2
			c2.1,1,4.3,1.4,6.7,1c-2.1-1.6-4.4-2.6-7-3.2c0,0.1,0,0.2,0,0.2c0,0.1,0,0.2-0.1,0.3c0,0,0,0,0.1,0c1.6,0.7,3.4,1.3,5,2
			C62.9,20.3,62.8,20.4,62.8,20.4z M43,72.7c0.2-0.2,0.4-0.3,0.6-0.5c-0.1-0.1-0.2-0.2-0.3-0.3C43.2,72.2,43.1,72.4,43,72.7
			C43,72.7,43,72.7,43,72.7z M44,78.3c-0.1,0.2-0.2,0.3-0.3,0.5c0.1,0.1,0.2,0.2,0.3,0.3c0.1-0.2,0.1-0.4,0.2-0.6
			C44.1,78.5,44.1,78.4,44,78.3z M50.6,50.7c0.2-0.2,0.3-0.4,0.5-0.6c0.1-0.1,0.2-0.3,0.2-0.4c-0.1-0.1-0.3-0.1-0.4-0.2
			c-0.2,0.4-0.4,0.7-0.6,1.1C50.4,50.6,50.5,50.6,50.6,50.7z M43.2,36c-0.1,0-0.2-0.1-0.3-0.1c-0.1,0.1-0.1,0.1-0.2,0.2
			C42.8,36,43,36,43.2,36z M41.7,64.4c0.2-0.1,0.4-0.2,0.6-0.3c-0.1-0.1-0.2-0.2-0.3-0.2C41.8,64,41.7,64.2,41.7,64.4z M44.6,49.9
			c-0.2,0.2-0.4,0.4-0.5,0.7C44.3,50.7,45,51,45,51c0,0,0,0,0,0c0,0,0,0,0,0c0,0,0.1,0,0.1-0.1c0-0.3,0-0.6,0-0.8
			C45,50.1,44.8,50,44.6,49.9C44.6,49.9,44.6,49.9,44.6,49.9z M34.4,32.4c-0.1,0.2-0.1,0.3-0.2,0.5c0.2-0.1,0.4-0.2,0.6-0.3
			c0.2-0.5,0.5-1,0.7-1.5C35.2,31.5,34.8,32,34.4,32.4z M49.5,60.3c0.1-0.3,0.3-0.6,0.4-0.8c-0.1-0.1-0.2-0.2-0.3-0.3
			c-0.2,0.3-0.3,0.5-0.5,0.8C49.3,60.1,49.4,60.2,49.5,60.3z M41.9,43.5c0.1-0.2,0.3-0.4,0.4-0.5c-0.2-0.1-0.4-0.2-0.6-0.3
			c-0.2,0.2-0.4,0.5-0.6,0.7c0.2,0.1,0.3,0.1,0.5,0.2C41.8,43.5,41.8,43.5,41.9,43.5z M49.5,32.6c-0.2-0.5-0.3-1.1-0.4-1.6
			c0,0.4,0,0.9,0,1.3C49.2,32.3,49.3,32.5,49.5,32.6z M39,28.7c0.8-1.6,1.3-3.3,1.3-5.1c-0.3,0.1-0.5,0.3-0.8,0.4
			c0,0,0.1,0.1,0.1,0.1c0,1.1-0.2,2.4-0.7,3.4c0,0-0.1,0-0.1,0c0.2-1.1,0.5-2.2,0.5-3.4c0,0,0,0,0-0.1c-0.2,0.1-0.4,0.1-0.6,0.2
			C38.7,24.7,38.2,26.4,39,28.7z M48.6,60.9c-0.1,0.2-0.2,0.5-0.3,0.7c0,0,0,0,0,0c0,0,0,0,0,0c0.3-0.1,0.5-0.3,0.7-0.4
			C48.9,61.1,48.7,61,48.6,60.9z M55.3,29.3c0,0.1,0,0.4,0.1,0.5c1,1.3,2.3,2.4,3.7,3.4c0,0,0,0.1,0,0.1c-1.4-0.7-2.6-1.7-3.6-2.9
			c0.4,0.7,0.7,1.5,1,2.3c1.3,0.5,2.5,1,3.8,1.5c-0.4-0.6-0.7-1.2-1-1.8C57.7,31.6,56.3,30.6,55.3,29.3z M57.9,28
			c0.7,0.9,1.3,1.8,1.9,2.8c0,0,0,0,0,0c1.3,0.9,3.2,1.1,4.7,1.3c-0.4-0.9-1-1.6-1.5-2.5c-1.7-0.6-3.5-1.3-4.9-2.5
			c0.1,0.1,0.1,0.2,0.2,0.4c0,0,0,0,0,0c0.9,0.5,1.7,1.3,2.6,1.9c0.9,0.6,1.8,1.2,2.7,1.8c0,0,0,0.1,0,0.1c-1-0.5-2-1.1-2.9-1.7
			c-0.7-0.5-1.4-0.9-2.1-1.5c0,0.1-0.1,0.1-0.2,0.1C58.3,28.1,58.1,28.1,57.9,28z M38.5,40.7c-0.1,0.2-0.3,0.4-0.4,0.5
			c0,0,0,0,0.1,0c0.1,0,0.2,0.1,0.3,0.1c0,0,0,0,0,0c0.1-0.2,0.3-0.3,0.5-0.5C38.8,40.8,38.7,40.7,38.5,40.7z M46.4,76.7
			c0.2-0.2,0.3-0.5,0.4-0.7c-0.1-0.1-0.1-0.2-0.2-0.2c-0.1,0.2-0.3,0.5-0.4,0.7C46.3,76.5,46.3,76.6,46.4,76.7z M44.1,61.2
			c-0.1,0.1-0.2,0.2-0.2,0.3c0.1,0,0.2-0.1,0.3-0.1c0,0,0.1,0,0.2,0C44.2,61.3,44.2,61.2,44.1,61.2z M45.1,68.6c0-0.2,0-0.4,0-0.6
			c0,0,0,0,0,0c-0.1,0-0.2-0.1-0.2-0.1c-0.1,0.2-0.3,0.4-0.4,0.6c0.1,0.1,0.2,0.1,0.3,0.2c0.1,0.1,0.2,0.1,0.2,0.1
			C44.9,68.8,45,68.7,45.1,68.6C45,68.6,45.1,68.6,45.1,68.6z M41.8,51.5c-0.3,0.3-0.5,0.6-0.7,0.9c-0.2,0.2-0.3,0.4-0.4,0.6
			c0.1,0,0.2,0.1,0.3,0.1c0.1,0,0.2-0.1,0.2-0.1c0,0-0.1,0,0-0.1c0.1-0.1,0.2-0.2,0.3-0.3c-0.1,0-0.3-0.1-0.4-0.2c0,0,0,0,0,0h0
			c0.1,0,0.3,0.1,0.4,0.1c0.1-0.1,0.2-0.2,0.3-0.3c-0.1,0-0.2-0.1-0.3-0.1c0,0,0-0.1,0,0c0.1,0,0.3,0.1,0.4,0.1
			c0.1-0.2,0.3-0.3,0.4-0.5C42.1,51.7,41.9,51.6,41.8,51.5z M49.9,67C49.9,67,49.9,67,49.9,67c0.1,0,0.1-0.1,0.1-0.2
			C49.9,66.9,49.9,66.9,49.9,67z M42.4,43c-0.1,0.1-0.2,0.3-0.3,0.4c0.2-0.1,0.5-0.2,0.7-0.2C42.7,43.1,42.5,43,42.4,43z M31.4,34.2
			c1.3-1.9,2.8-3.7,4.1-5.7c0-0.1,0-0.2,0-0.3c-0.5,0.8-1.2,1.4-1.9,2c-1.3,1.6-2.5,3.2-3.4,5.1c1.2-0.7,2.3-1.5,3.3-2.5
			c1.1-1,2.3-2.3,2.8-3.8c-0.2,0.2-0.4,0.4-0.5,0.5c-0.1,0.1-0.2,0-0.2-0.1c0-0.2,0-0.4-0.1-0.5C34.4,30.9,33,32.8,31.4,34.2
			C31.4,34.2,31.4,34.2,31.4,34.2z M44.5,76.4c-0.1,0.2-0.2,0.3-0.3,0.5c0,0,0.1,0.1,0.1,0.1c0.1,0.1,0.2,0.1,0.3,0.2
			c0,0,0-0.1,0.1-0.1c0,0,0,0,0,0c0-0.2,0-0.3,0-0.5c0,0,0,0,0,0C44.7,76.5,44.6,76.5,44.5,76.4z M41.8,33.1
			c0.1,0.2,0.2,0.4,0.3,0.7c0-0.5,0-1.1,0-1.6C42.1,32.2,41.9,32.9,41.8,33.1z M47.1,75.1c0.1,0.1,0.1,0.2,0.2,0.3
			c0,0,0-0.1,0.1-0.1c0,0,0.1,0,0.1,0c0-0.3,0-0.5,0-0.7c0,0-0.1-0.1-0.1-0.1c-0.1-0.1-0.2-0.2-0.3-0.3c-0.1,0.2-0.2,0.3-0.3,0.5
			c0.1,0.1,0.1,0.2,0.2,0.3c0.1-0.1,0.2-0.3,0.3-0.4c0,0,0.1,0,0.1,0C47.3,74.8,47.2,74.9,47.1,75.1z M45.4,33.3
			c0,0.1,0.1,0.2,0.1,0.3c0.1-0.1,0.1-0.3,0.2-0.4c-0.1-0.5-0.2-1-0.3-1.5C45.4,32.3,45.4,32.8,45.4,33.3z M42,61.6
			c0.1,0,0.2,0.1,0.3,0.1c0-0.1,0.1-0.2,0.1-0.3c-0.1,0-0.2-0.1-0.3-0.1C42.2,61.5,42.1,61.5,42,61.6z M41.9,52.3
			c-0.1,0.1-0.2,0.2-0.3,0.3c0.1,0,0.2,0,0.2,0.1c0.1-0.1,0.3-0.1,0.4-0.2c0,0,0,0,0,0C42.2,52.4,42,52.4,41.9,52.3z M41.6,62
			c0.1-0.1,0.1-0.2,0.2-0.4c-0.1,0-0.2-0.1-0.3-0.1c0,0,0-0.1,0,0c0.1,0,0.3,0.1,0.4,0.1c0-0.1,0.1-0.2,0.2-0.2
			c-0.2-0.1-0.3-0.1-0.5-0.2c-0.1,0.1-0.1,0.2-0.2,0.3c-0.1,0.1-0.2,0.3-0.2,0.5C41.4,61.9,41.5,62,41.6,62z M49.4,67.7
			c0.1-0.2,0.2-0.5,0.4-0.7c-0.1-0.1-0.2-0.2-0.3-0.3c-0.1,0.2-0.2,0.4-0.4,0.7C49.2,67.5,49.3,67.6,49.4,67.7z M45.1,67.9
			c0-0.1,0-0.2,0-0.4c0,0,0-0.1,0-0.2c-0.1-0.1-0.3-0.2-0.4-0.3c-0.1,0.1-0.2,0.2-0.3,0.4c0.1,0.1,0.3,0.1,0.4,0.2
			c0.1-0.1,0.1-0.1,0.2-0.2c0,0,0.1,0,0.1,0.1c0,0.1-0.1,0.1-0.1,0.2C45,67.8,45,67.9,45.1,67.9z M43.8,53.7
			c-0.2,0.2-0.3,0.5-0.5,0.7c0,0,0,0,0.1,0c0.2-0.1,0.3-0.1,0.5-0.2c0.2-0.1,0.3-0.1,0.5-0.2C44.2,54,44,53.8,43.8,53.7z M48.8,68.4
			c0.1,0.1,0.1,0.1,0.2,0.2c0.1-0.2,0.2-0.4,0.3-0.7c0-0.1-0.1-0.1-0.1-0.2C49,67.9,48.9,68.2,48.8,68.4z M44.6,29.7
			c0.1-0.2,0.3-0.4,0.4-0.6c0-0.1,0.1,0,0.1,0C45,29.3,44.9,29.5,44.6,29.7c0.2,0.1,0.4,0.2,0.5,0.3c0,0,0,0.1,0,0.1
			c-0.2,0-0.3-0.1-0.4-0.2c-0.1,0.1-0.2,0.3-0.3,0.4c0.2,0.1,0.4,0.3,0.5,0.4c0,0,0-0.1,0.1-0.1c0,0,0.1,0,0.1,0.1c0,0,0,0.1,0,0.1
			c0,0,0.1,0,0.1,0.1c0.1,0.1,0,0.2-0.1,0.1c0,0-0.1,0-0.1-0.1c-0.1,0.2-0.3,0.3-0.4,0.5c0.2,0.1,0.4,0.3,0.7,0.4c0-0.9,0-1.8,0-2.6
			c0-0.1,0-0.1,0-0.2c0,0,0,0,0,0c-0.1-0.1-0.2-0.1-0.3-0.2c-0.2,0.2-0.4,0.4-0.6,0.6C44.3,29.5,44.5,29.6,44.6,29.7
			C44.6,29.7,44.6,29.7,44.6,29.7z M50.8,42.2c-0.3-0.1-0.5-0.2-0.8-0.3c-0.1,0.2-0.3,0.3-0.5,0.5C50,42.4,50.4,42.4,50.8,42.2
			C50.8,42.3,50.8,42.3,50.8,42.2z M40.8,55.6c-0.1,0.2-0.2,0.4-0.3,0.6c0.2-0.2,0.3-0.3,0.5-0.4C41,55.7,41,55.7,40.8,55.6
			L40.8,55.6z M58.6,30.8C58.6,30.8,58.6,30.9,58.6,30.8c-1-0.6-1.8-1.4-2.5-2.3c-0.7-0.9-1.5-1.5-2.3-2.3c0.5,0.9,0.9,1.8,1.3,2.7
			c1.3,1.2,2.8,2.7,5.3,3.6c-0.9-1.7-1.9-3.2-3.1-4.7c-0.8-0.3-1.6-0.7-2.3-1.1c0.4,0.4,0.8,0.8,1.1,1.2
			C56.9,28.9,57.7,29.9,58.6,30.8z M58.1,27.7c-0.5-0.8-0.9-1.6-1.6-2.2c-0.7-0.7-1.5-1.3-2.2-2.1c-0.1-0.1-0.2-0.1-0.3-0.2
			c0,0,0,0,0,0c-0.1,0.2-0.3,0.3-0.4,0.5c0.5,0.3,0.9,0.8,1.4,1.2c0.5,0.4,1.1,0.8,1.5,1.3c0,0,0,0,0,0c-0.6-0.2-1.1-0.6-1.6-1
			c-0.5-0.4-1.1-0.8-1.5-1.4c-0.2,0.2-0.5,0.4-0.8,0.6C54.3,26,56,26.9,58.1,27.7z M45.5,50.9c1-0.5,2.2-1.1,2.8-2.1
			c0.7-1.2,0.3-2.5-0.6-3.5c-0.6-0.7-1.4-1.2-2.3-1.5c0,2,0.2,4.1,0.1,6.1c0,0,0,0,0,0C45.5,50.2,45.5,50.5,45.5,50.9z M48.6,28.8
			c-0.5-0.9-0.9-1.8-1.1-2.8c0.1,1.7,0.4,3.4,0.7,5.1c0,0,0,0-0.1,0c-0.6-1.6-0.9-3.5-1-5.3c0,0.9-0.1,1.8-0.2,2.6
			c0.3,1.3,0.5,2.5,1,3.7c0,0,0,0,0,0c0.3-0.1,0.5,0,0.7,0C48.8,31,48.8,29.9,48.6,28.8C48.6,28.8,48.6,28.8,48.6,28.8z M42.2,55.5
			c-1.2,0.7-2.7,1.9-2.3,3.5c0.2,0.6,0.7,1.4,2.5,2c0-1.9,0-3.8,0-5.6C42.3,55.5,42.3,55.5,42.2,55.5z M48,51.8
			c-0.2,0.2-0.3,0.5-0.4,0.7c0.1,0.1,0.2,0.1,0.3,0.2c0.2-0.1,0.3-0.1,0.5-0.2c0.1-0.1,0.1-0.2,0.2-0.3C48.3,52,48.1,51.9,48,51.8z
			 M45.2,56.3c0-0.3,0-0.6,0-0.9c0,0-0.3-0.2-0.5-0.3c-0.2,0.2-0.3,0.5-0.5,0.6c0.3,0.1,0.5,0.3,0.8,0.4c0,0,0.1-0.1,0.1-0.1
			c0,0,0.1,0,0.1,0s0,0.1-0.1,0.1C45.1,56.3,45.1,56.3,45.2,56.3z M53.4,32.8c0.8,0.4,1.5,1,2,1.8c-0.2-0.5-0.3-1-0.4-1.5
			c-1.1-0.8-2.2-1.8-3-2.9c0,0,0,0,0,0c0,0,0,0,0,0c0,0,0,0.1,0,0.1c0.3,0.6,0.5,1.2,0.9,1.8C53,32.3,53.2,32.6,53.4,32.8z
			 M48.3,69.2c-0.1,0.2-0.3,0.4-0.4,0.7c0,0,0,0,0.1,0.1c0.2-0.1,0.4-0.3,0.6-0.4C48.4,69.4,48.4,69.3,48.3,69.2z M46.2,35.8
			C46.2,35.8,46.1,35.9,46.2,35.8c0,0.1,0.1,0.1,0.2,0C46.3,35.8,46.2,35.8,46.2,35.8z M49.5,42.5c0.2-0.2,0.3-0.4,0.5-0.6
			c-0.3-0.1-0.6-0.3-0.8-0.5c0,0,0,0,0,0c-0.1,0.2-0.3,0.3-0.4,0.5c0.2,0.1,0.4,0.2,0.6,0.4c0,0,0,0.1,0,0.1
			c-0.2-0.1-0.4-0.2-0.6-0.3c-0.2,0.2-0.4,0.5-0.7,0.6C48.5,42.6,49,42.5,49.5,42.5z M42.2,50.9c0,0,0.1,0,0.1,0.1c0-0.7,0-1.4,0-2
			c0-1.6-0.1-3.5-0.2-5.1c-0.8,0.3-1.6,0.8-2.2,1.4C39.1,46.2,37.7,48.9,42.2,50.9z M41.6,20.9c0.2,0.3,0.5,0.6,0.7,0.8
			c0.1,0,0.2-0.1,0.3-0.1c0.1,0,0.1,0,0.1,0.1c-0.1,0.1-0.2,0.1-0.2,0.2c0.1,0.1,0.3,0.3,0.4,0.4c0.1-0.1,0.3-0.1,0.4-0.2
			c-0.2-0.2-0.4-0.4-0.5-0.6c0,0,0-0.1,0,0c0.2,0.2,0.4,0.4,0.6,0.6c0.1,0,0.1-0.1,0.2-0.1c0,0,0.1,0.1,0.1,0.1
			c-0.1,0.1-0.1,0.1-0.2,0.1c0.2,0.1,0.4,0.3,0.6,0.4c0.2-0.1,0.4-0.1,0.5-0.2c-0.2-0.2-0.4-0.3-0.6-0.6c0,0,0-0.1,0,0
			c0.1,0.1,0.1,0.1,0.2,0.1c0.2,0.1,0.3,0.3,0.5,0.4c0.2-0.1,0.4-0.3,0.6-0.4c-0.2-0.1-0.3-0.3-0.5-0.4c-0.2,0.2-0.4,0.3-0.6,0.5h0
			c0,0,0,0,0,0c1.1-0.8,1.3-1.6,1.4-1.9c-0.2-0.1-0.4-0.2-0.6-0.3c0,0,0-0.1,0-0.1c0.2,0.1,0.4,0.2,0.6,0.3c0.1-0.2,0.1-0.3,0.1-0.5
			c-0.2-0.2-0.4-0.3-0.6-0.4c-0.1,0.1-0.1,0.2-0.2,0.3c0,0-0.1,0,0,0c0.1-0.1,0.1-0.2,0.2-0.3c-0.2-0.1-0.4-0.2-0.6-0.3
			c-0.1,0.1-0.1,0.2-0.2,0.3c0,0-0.1,0-0.1,0c0-0.1,0.1-0.2,0.1-0.3c-0.1,0-0.2-0.1-0.3-0.1c-0.1,0,0-0.1,0-0.1c0.1,0,0.2,0,0.3,0.1
			c0.1-0.1,0.1-0.3,0.2-0.4c-0.3-0.1-0.6-0.2-0.9-0.2c-1.5,0-2.7,1.2-2.6,2.7c0,0.5,0.2,0.9,0.4,1.3c0,0,0.3,0,0.4,0
			C41.8,21.5,41.6,21.2,41.6,20.9C41.5,20.9,41.6,20.8,41.6,20.9z M44,62.9c-0.1,0.2-0.3,0.4-0.4,0.6c0.4-0.2,0.8-0.3,1.3-0.5
			c0,0,0.1-0.1,0.1-0.2c-0.2-0.2-0.4-0.4-0.6-0.6C44.2,62.5,44.1,62.7,44,62.9c0.1,0,0.2,0.1,0.3,0.1c0,0,0,0,0,0
			C44.2,63,44,63,44,62.9z M45.4,22.6c-0.2-0.1-0.4-0.2-0.6-0.3c-0.2,0.1-0.4,0.2-0.6,0.2c0.2,0.1,0.4,0.2,0.5,0.3c0,0,0,0,0,0
			C44.8,22.8,45.2,22.7,45.4,22.6z M50,35.7c0.1-0.1,0.3-0.1,0.5-0.2c-0.1,0-0.2-0.1-0.3-0.1c-0.1,0.1-0.2,0.2-0.2,0.3
			C49.9,35.7,50,35.7,50,35.7z M44.7,43.5c0.1,0.1,0.3,0.1,0.4,0.2c0,0,0,0,0,0c0,0,0-0.1,0-0.1C45,43.6,44.8,43.6,44.7,43.5z
			 M50,59.5c-0.1,0.3-0.3,0.5-0.4,0.8c0.1,0.1,0.2,0.1,0.2,0.2c0.2-0.2,0.4-0.4,0.6-0.7C50.3,59.8,50,59.6,50,59.5z M39.4,58.2
			c0-0.3,0.1-0.5,0.2-0.7c0,0-0.1-0.1-0.1-0.1c-0.1,0.2-0.2,0.4-0.3,0.6c0,0,0.1,0,0.1,0.1C39.3,58.1,39.4,58.2,39.4,58.2z
			 M25.2,31.8c0.7-0.8,1.5-1.5,2.3-2.1c-0.1,0-0.1,0-0.2,0.1c-0.7,0.4-1.5,0.7-2.3,1c-0.8,0.4-1.5,0.9-2.3,1.3
			c-0.1,0-0.1-0.1-0.1-0.1c0.8-0.7,1.8-1.4,2.9-1.9c-0.1,0-0.3,0-0.4,0.1c-0.1,0-0.2-0.2-0.1-0.2c0.2-0.2,0.3-0.4,0.5-0.5
			c-0.4,0.3-0.9,0.6-1.3,0.8c-0.9,0.8-1.8,1.6-2.5,2.7C23,32.7,24.1,32.2,25.2,31.8z M32.6,26.9c0.4-0.5,0.9-1,1.3-1.5
			c0.5-0.5,0.9-1,1.4-1.4c-0.3-0.1-0.6-0.3-0.8-0.5c-1.3,1.3-2.1,2.8-2.8,4.4c1.9-0.8,3.5-2,4.7-3.6c-0.3-0.1-0.6-0.1-0.9-0.3
			c0,0,0,0,0,0.1c-0.4,0.5-0.9,0.9-1.3,1.4C33.7,26,33.2,26.5,32.6,26.9C32.6,27,32.5,26.9,32.6,26.9z M45.6,22.5
			c0.2-0.1,0.3-0.2,0.5-0.4c-0.2-0.1-0.3-0.2-0.5-0.3c-0.2,0.2-0.4,0.3-0.6,0.4C45.1,22.4,45.3,22.5,45.6,22.5z M44.2,71.7
			C44.1,71.8,44,71.9,44,72c0.1-0.1,0.2-0.1,0.3-0.2C44.2,71.8,44.2,71.7,44.2,71.7z M45.9,20c-0.1,0.3-0.2,0.5-0.4,0.7
			c0.2,0.1,0.4,0.2,0.5,0.3c0.1-0.2,0.2-0.4,0.3-0.6C46.2,20.3,46,20.2,45.9,20z M46.5,22.9c1.5,1.2,3.2,2.2,5.2,1.6
			c2.1-0.6,2.8-2.5,3.1-4.5c0.1-0.6,0.6-0.1,1.4-0.6c1.8-1.2,1.2-1.9,1.1-2c-0.7-0.6-2.5,0.6-3,1c-1.1,0.8-1,0.9-1,1.7
			c0,0.3,0.1,0.6,0.1,1c0,0.6-0.2,1.1-0.5,1.6c-0.6,1-1.7,1.5-2.9,1.5c-1.3-0.1-2.4-0.8-3.4-1.6C46.6,22.6,46.5,22.8,46.5,22.9z
			 M52,46.1c0-0.2-0.1-0.4-0.1-0.6c0,0-0.1,0-0.1-0.1c-0.1,0.2-0.2,0.4-0.2,0.6c0,0,0.1,0,0.1,0.1c0.1,0.1,0.2,0.1,0.3,0.2
			C51.9,46.2,51.9,46.1,52,46.1z M44,59.1c0.1-0.2,0.2-0.3,0.4-0.5c-0.1-0.1-0.2-0.1-0.2-0.2c-0.2,0.2-0.4,0.5-0.6,0.7c0,0,0,0,0,0
			c0.2-0.2,0.4-0.5,0.5-0.7c-0.3-0.2-0.5-0.4-0.6-0.6c0,0,0-0.1,0.1,0c0.2,0.2,0.4,0.4,0.7,0.5c0,0,0,0,0,0c0.1-0.1,0.2-0.3,0.3-0.4
			c-0.1,0-0.1-0.1-0.2-0.1c0,0,0-0.1,0,0c0.1,0,0.2,0.1,0.2,0.1c0-0.1,0.1-0.1,0.2-0.2c0,0,0.1,0,0.1,0c0,0.1-0.1,0.2-0.1,0.2
			c0,0,0.1,0,0.1,0c0.1,0.1,0.3,0.1,0.4,0.2c0,0,0,0,0,0s0,0-0.1,0c-0.1,0-0.1,0-0.2-0.1c-0.1,0.1-0.2,0.3-0.3,0.4
			c0.2,0.1,0.4,0.1,0.6,0.2c0-0.2,0-0.4,0-0.6c0-0.6,0-1.1,0-1.7c-0.1,0-0.1-0.1-0.2-0.1c-0.1,0.1-0.2,0.3-0.3,0.4
			c0.1,0,0.2,0.1,0.3,0.1c0,0,0,0.1,0,0.1c-0.1,0-0.3,0-0.4-0.1c-0.3,0.3-0.6,0.6-0.9,0.8c0,0-0.1,0,0,0c0.3-0.3,0.5-0.5,0.8-0.8
			c-0.3-0.2-0.6-0.4-0.9-0.6c0,0,0,0,0,0c0.2,0.1,0.4,0.3,0.7,0.4c0.1,0,0.2,0.1,0.3,0.1c0.1-0.1,0.2-0.3,0.3-0.4
			c-0.3-0.1-0.5-0.3-0.8-0.4c-0.1,0.1-0.2,0.2-0.3,0.3c0,0-0.1,0,0-0.1c0.1-0.1,0.2-0.2,0.3-0.3c0,0-0.1-0.1-0.1-0.1
			c0,0,0-0.1,0-0.1c0.1,0,0.1,0,0.2,0.1c0.1-0.2,0.3-0.5,0.5-0.7c-0.3-0.1-0.5-0.3-0.8-0.4c-0.4,0.2-0.8,0.3-1.1,0.5
			c0,2,0,3.9,0,5.8c0.3,0.1,0.5,0.2,0.8,0.2c0,0,0.1,0,0.1,0c-0.1-0.1-0.2-0.2-0.3-0.3c0,0,0-0.1,0.1-0.1c0.1,0.1,0.3,0.2,0.4,0.3
			c0.1-0.1,0.2-0.2,0.2-0.3c-0.2-0.1-0.3-0.3-0.4-0.4c0,0,0-0.1,0.1,0c0.1,0.1,0.3,0.3,0.4,0.4c0.1-0.1,0.1-0.2,0.2-0.3
			c0.1-0.1,0.2-0.3,0.3-0.4c-0.4-0.2-0.9-0.4-1.2-0.7c0,0,0-0.1,0-0.1c0.4,0.2,0.8,0.4,1.2,0.6c0.1-0.1,0.2-0.2,0.3-0.3c0,0,0,0,0,0
			c0,0,0.1,0,0,0.1c0,0.1-0.1,0.2-0.2,0.3c0.1,0,0.2,0.1,0.3,0.1c0-0.5,0-1,0-1.4c-0.2,0-0.5-0.1-0.7-0.2C44.3,58.9,44.2,59,44,59.1
			c0.4,0.2,0.7,0.4,1,0.6c0,0,0,0.1,0,0.1c0,0,0,0,0,0c-0.4-0.2-0.8-0.5-1.2-0.7c0,0,0-0.1,0-0.1C43.9,59.1,43.9,59.1,44,59.1
			C44,59.2,44,59.1,44,59.1z M45.4,71c-0.1,0.1-0.1,0.2-0.2,0.3c0.1-0.1,0.2-0.1,0.4-0.2C45.5,71.1,45.4,71.1,45.4,71z M37.5,41.6
			c0.1-0.1,0.2-0.3,0.3-0.4c-0.1-0.1-0.2-0.1-0.3-0.2c-0.1,0.2-0.3,0.3-0.4,0.5C37.3,41.5,37.4,41.6,37.5,41.6z M41.7,29.8
			c0-0.6,0-1.2,0-1.8c-0.1,0.3-0.2,0.7-0.3,1c0.2,1,0.4,1.9,0.6,2.9c0.1-0.2,0.1-0.5,0.2-0.7c0-1.7,0-3.4,0-5.1
			C42,27.4,41.8,28.6,41.7,29.8C41.7,29.8,41.7,29.8,41.7,29.8z M49.5,58.4c0.1-0.4,0.3-0.8,0.6-1.2C50,57.1,49.9,57,49.8,57
			c0,0,0-0.1,0,0C50,57,50,57,50.1,57.1c0.1-0.1,0.1-0.2,0.2-0.3c-0.4-0.7-0.9-1.2-1.5-1.7c-0.7-0.6-1.4-1.1-2.2-1.5
			c-0.8,0.3-1.5,0.6-2.3,0.9c1.7,0.8,3.9,2,3.8,4c0,1.4-1,2.1-2.1,2.6c0,0,0,0,0,0.1c-0.2,0.3-0.4,0.5-0.5,0.8
			c0.2,0.1,0.4,0.2,0.5,0.3c0.1-0.2,0.2-0.4,0.3-0.6c0,0,0,0,0,0c0.2-0.4,0.5-0.8,0.8-1.1c0,0,0.1,0,0,0c-0.3,0.4-0.5,0.8-0.8,1.2
			c0.2,0.1,0.4,0.3,0.5,0.4c0.4-1,1-2,1.7-2.9c0,0,0.1,0,0.1,0.1l-0.2,0.3c-0.5,0.7-0.8,1.2-1,1.6c0.2,0.1,0.4,0.2,0.6,0.3
			c0,0,0,0,0,0c0.1-0.2,0.2-0.5,0.3-0.7c-0.1-0.1-0.2-0.2-0.3-0.2c0,0,0-0.1,0,0c0.1,0.1,0.2,0.1,0.3,0.2c0.1-0.3,0.3-0.5,0.4-0.8
			c-0.1-0.1-0.2-0.2-0.3-0.3c0,0,0,0,0,0c0,0,0,0,0.1,0c0.1,0.1,0.2,0.2,0.3,0.3c0.2-0.3,0.3-0.6,0.5-0.8c-0.1-0.1-0.2-0.2-0.3-0.3
			c0,0,0-0.1,0.1-0.1c0.1,0.1,0.2,0.2,0.3,0.3c0,0,0-0.1,0.1-0.1c0-0.1,0.1,0,0.1,0c0,0,0,0.1-0.1,0.1c0.1,0.1,0.2,0.2,0.3,0.3
			c0.1-0.2,0.2-0.3,0.3-0.5c0,0,0.1,0,0.1,0c-0.1,0.2-0.2,0.4-0.2,0.6c0,0,0.1,0,0.1,0.1c0.1-0.3,0.2-0.5,0.3-0.8c0,0-0.1,0-0.1-0.1
			c-0.1-0.1-0.2-0.2-0.3-0.3c0,0.1,0,0.1-0.1,0.2c0,0.1-0.1,0-0.1,0c0-0.1,0.1-0.2,0.1-0.3c0-0.1-0.1-0.1-0.1-0.1c0,0,0-0.1,0,0
			c0,0,0.1,0.1,0.1,0.1c0.1-0.3,0.2-0.5,0.4-0.7c-0.1-0.1-0.2-0.2-0.3-0.2C50,57.7,49.8,58,49.5,58.4C49.6,58.5,49.5,58.4,49.5,58.4
			z M50.6,58.8c-0.1,0.2-0.2,0.5-0.3,0.7c0.1,0.1,0.2,0.1,0.2,0.2c0.1-0.3,0.2-0.5,0.3-0.8C50.7,58.9,50.6,58.9,50.6,58.8z
			 M38.6,35.3c-0.1,0.2-0.3,0.3-0.4,0.5c0.1,0.1,0.2,0.1,0.3,0.2c0.1,0,0.1,0,0.1,0c0.1-0.1,0.2-0.2,0.3-0.3c0,0,0,0-0.1,0
			c0,0,0-0.1,0,0c0,0,0.1,0,0.1,0c0,0,0.1-0.1,0.2-0.1c0.1,0,0.1,0,0.1,0.1c0,0-0.1,0.1-0.1,0.1c0.1,0,0.2,0.1,0.4,0.1
			c0,0,0,0,0.1,0c0.1-0.1,0.2-0.1,0.3-0.2c0,0,0,0,0,0C39.4,35.6,39,35.4,38.6,35.3z M47.4,52.5c-0.2-0.1-0.4-0.3-0.6-0.4
			c-0.2,0.2-0.3,0.5-0.5,0.7c0.2,0.1,0.4,0.2,0.6,0.3c0.1,0,0.2-0.1,0.3-0.1C47.2,52.8,47.3,52.7,47.4,52.5z M39.4,44.4
			c-0.2-0.1-0.4-0.3-0.6-0.4c-0.2,0.3-0.4,0.5-0.5,0.8c0.2,0.1,0.4,0.2,0.7,0.3C39,44.9,39.2,44.7,39.4,44.4z M43.9,79.8
			c0-0.2,0-0.3,0.1-0.4c-0.1-0.1-0.2-0.2-0.4-0.3c0,0,0,0,0,0c0.1,0.3,0.2,0.7,0.2,1l0,0C43.8,79.9,43.8,79.8,43.9,79.8z M42.6,61.5
			c0,0-0.1,0.1-0.1,0.2c0,0,0,0.1-0.1,0.1c0,0,0.1,0.1,0.2,0.1c0.2-0.1,0.4-0.1,0.5-0.2C42.9,61.6,42.7,61.6,42.6,61.5z M48.8,67
			C48.8,67,48.8,67,48.8,67c0.1,0.1,0.2,0.2,0.2,0.3c0.1-0.2,0.2-0.5,0.4-0.7c-0.1-0.1-0.1-0.2-0.2-0.3C49,66.6,48.9,66.8,48.8,67z
			 M44.7,73.9c0.1-0.1,0.2-0.2,0.2-0.3c-0.1-0.2-0.2-0.3-0.3-0.5c-0.1,0-0.1-0.1-0.2-0.1c-0.2,0.2-0.4,0.5-0.6,0.7
			c0.2,0.2,0.4,0.3,0.6,0.5C44.5,74.1,44.5,74,44.7,73.9c-0.2,0-0.3-0.1-0.4-0.2c0,0,0-0.1,0,0C44.4,73.7,44.5,73.8,44.7,73.9z
			 M27.3,33.8c0.7-0.9,1.7-1.6,2.5-2.3c0,0,0,0,0.1,0c0.2-0.2,0.3-0.5,0.5-0.7c-0.6,0.4-1.2,0.8-1.9,1.1c-0.9,0.9-1.8,1.8-2.6,2.8
			c1.2-0.3,2.2-0.9,3.3-1.4c2.6-1.1,3.3-2.4,3.3-2.5c-1.1,0.8-2.3,1.5-3.5,2.1c-0.1,0.1-0.3-0.1-0.2-0.2c0.1-0.2,0.3-0.4,0.5-0.6
			C28.8,32.7,28.1,33.3,27.3,33.8C27.3,33.8,27.3,33.8,27.3,33.8z M43,63.3c-0.1,0.2-0.2,0.3-0.2,0.5c0,0,0.1,0,0.1-0.1
			c0.2-0.1,0.3-0.1,0.5-0.2C43.3,63.5,43.1,63.4,43,63.3z M49.3,30.8c0.1,0.6,0.3,1.2,0.5,1.8c0.1,0,0.3-0.1,0.4-0.1
			C49.9,32,49.6,31.4,49.3,30.8z M45.9,31.6c0.1,0.4,0.2,0.7,0.3,1.1c0.2-0.1,0.5,0,0.7,0.1c-0.2-0.9-0.3-1.8-0.3-2.8
			c-0.1,0.6-0.3,1.2-0.4,1.8c0,0.1-0.2,0.1-0.2,0C45.9,31.8,45.9,31.7,45.9,31.6z M44.3,37.7c-0.2-0.2-0.5-0.4-0.7-0.7c0,0,0,0,0,0
			c0,0-0.1,0,0-0.1c0,0,0,0,0,0c-0.1-0.1-0.1-0.1-0.1-0.2c0-0.1,0-0.1,0.1-0.1c0.1,0.1,0.1,0.1,0.2,0.2c0.1-0.1,0.3-0.2,0.4-0.3
			c-0.1-0.1-0.2-0.3-0.4-0.4c0,0,0,0,0,0c0,0-0.1,0-0.2,0c0,0,0,0,0,0c0,0.5-0.2,0.9-0.6,1.2c-0.1,0.1-0.2,0-0.2-0.1
			c0.1-0.1,0.1-0.3,0.1-0.4c-0.1,0.1-0.2,0.2-0.3,0.3c0,0.4,0,0.8,0,1.3c0,0.6,0,1.2,0,1.9c0.4,0,0.9,0,1.3,0c0.2,0,0.5,0,0.7,0
			c0.1-0.1,0.1-0.1,0.2-0.2c-0.3-0.2-0.5-0.4-0.8-0.6c-0.1,0.1-0.2,0.2-0.3,0.3c0,0.1-0.1,0-0.1-0.1c0.1-0.1,0.2-0.2,0.2-0.3
			c-0.1-0.1-0.3-0.3-0.4-0.4c0,0,0-0.1,0.1-0.1c0.1,0.1,0.3,0.3,0.4,0.4c0.1-0.2,0.3-0.3,0.4-0.5c-0.1-0.1-0.3-0.2-0.4-0.3
			c0,0,0-0.1,0,0c0.1,0.1,0.3,0.2,0.4,0.3c0.1-0.2,0.3-0.4,0.5-0.5C44.7,38,44.5,37.8,44.3,37.7c-0.1,0.3-0.3,0.4-0.5,0.6
			c0,0,0,0,0,0C44,38.1,44.1,37.9,44.3,37.7z M27.5,22.3c0.5-0.5,1.1-1,1.6-1.4c-0.9,0.2-1.8,0.3-2.8,0.4c-1.7,0.8-3.6,1.3-5.4,1.8
			c0,0-0.1,0,0-0.1c1.4-0.6,2.9-1.3,4.4-1.7c-0.4,0-0.8,0-1.2-0.1c-2.3,0.5-4.3,1.6-6.3,2.8C21.1,23.9,24.2,23.2,27.5,22.3
			C27.5,22.3,27.5,22.3,27.5,22.3z M18.3,26.7c1.4-0.9,3-1.6,4.5-2.3c0.7-0.3,1.4-0.7,2.1-1c-1.3,0.3-2.7,0.6-4,0.7
			c0,0-1.9,1-2.8,1.6c-0.9,0.6-1.7,1.3-2.4,2c2.6,0,7.6-1.6,7.6-1.6c1.1-0.9,2.4-1.7,3.7-2.2c-0.2,0-0.4,0-0.6,0
			c-0.1,0-0.2-0.1-0.1-0.2c0.2-0.3,0.4-0.6,0.7-0.9c-1.3,0.8-2.9,1.3-4.3,1.9C21.2,25.4,19.8,26.2,18.3,26.7
			C18.3,26.8,18.2,26.7,18.3,26.7z M31.4,37.8c-0.1-1.5,0.4-2.8,1.3-3.8c-0.8,0.7-1.7,1.3-2.7,1.8c-0.1,0.1-0.3-0.1-0.2-0.2
			c0.5-1.1,1-2.1,1.6-3.1c-0.5,0.3-1,0.6-1.5,0.9c-1.4,0.7-2.8,1.3-4.3,1.7c-0.1,0-0.3-0.1-0.2-0.2c0.6-0.8,1.2-1.7,2-2.5
			c-1.1,0.5-2.2,0.9-3.3,1.3c-0.1,0-0.3-0.1-0.2-0.2c0.3-0.4,0.6-0.8,0.9-1.2c-1,0.5-2.3,0.8-3.4,1c-0.1,0-0.2-0.1-0.2-0.2
			c0.5-0.8,1.1-1.6,1.8-2.2c-1.5,0.7-3.2,1.1-4.8,1.4c-0.2,0-0.3-0.1-0.2-0.3c1-1,2-2,3.1-2.9c-0.6,0.3-1.2,0.6-1.8,0.8
			c-1.3,0.5-2.6,0.3-3.9,0.8c-0.1,0-0.3-0.1-0.2-0.2c0.8-1,1.7-2.1,2.9-2.8c-1,0.2-2,0.3-2.9,0.2c-0.1,0-0.2-0.1-0.1-0.3
			c0.8-0.8,1.6-1.6,2.5-2.2c0.1-0.1,0.2-0.1,0.3-0.2c-1.9,0.4-3.9,0.5-5.8,0.4c-0.2,0-0.2-0.2-0.1-0.3c1.7-1.2,3.4-2.3,5.3-3.2
			c1.6-0.8,3.4-1.8,5.2-2.1c2.1-1.3,4.7-2.3,7.2-2.3c0-0.1,0-0.1,0.1-0.2c0.3-0.5,1-0.6,1.5-0.4c0.4,0.1,0.7,0.4,1.1,0.6
			c0.7,0.4,1.4,0.4,2.1,0.5c0.4,0,0.4,0.1,0.4,0.5c0,0.5-0.2,0.9-0.3,1.4c0,0.5,0,1,0.2,1.5c1,2.8,4.7,2,6.4,0.4c0,0,0,0,0,0
			c-0.3-0.5-0.5-1-0.5-1.6c0-1.7,1.5-3,3.1-2.9c1.6,0.1,3.2,1.6,3.1,3.3c-0.1,0.5-0.2,1-0.5,1.3c0,0,1.9,1.5,3,1.7
			c1.3,0.3,2.6-0.3,3.2-1.4c0.4-0.7,0.5-1.4,0.3-2.1c-0.1-0.3-0.2-0.6-0.1-1c0.1-0.4,1-0.9,1.5-1.3c0.7-0.5,3-1.9,3.4-0.4
			c2.7,0.4,5.2,1.6,7.3,3.3c4.2,0.1,8.2,1.7,11.4,4.3c0.1,0.1,0,0.2-0.1,0.3c-2.1,0.4-4.3,0.4-6.3-0.3c0.9,0.6,1.6,1.3,2.4,2.1
			c0.1,0.1,0,0.2-0.1,0.3c-1.3,0.1-2.7,0.1-4-0.3c0.3,0.3,0.7,0.6,1,0.9c0.1,0.1,0,0.3-0.1,0.3c-0.6-0.1-1.3-0.1-1.9-0.3
			c0.7,0.7,1.4,1.4,2,2.1c0.1,0.1,0,0.3-0.1,0.2c-1.7-0.1-3.4-0.3-5-1c0.1,0.1,0.2,0.3,0.3,0.4c0.1,0.1,0,0.3-0.2,0.2
			c-0.3-0.1-0.5-0.2-0.8-0.3c0.6,0.7,1,1.6,1.4,2.4c0,0.1,0,0.2-0.1,0.2c-1-0.1-2-0.3-2.9-0.5c-0.6-0.2-1.3-0.3-1.9-0.8
			c0.3,0.5,0.6,1.1,0.9,1.6c0.1,0.1,0,0.3-0.2,0.2c-0.4-0.1-0.8-0.3-1.1-0.5c0.3,0.6,0.7,1.2,1.1,1.8c0.1,0.1,0,0.2-0.2,0.2
			c-1.4-0.4-2.7-0.9-4-1.6c0.1,0.3,0.2,0.7,0.3,1c0,0.1-0.1,0.3-0.2,0.2c-0.4-0.3-0.9-0.5-1.3-0.8c0.3,0.7,1.1,2.8,0.9,4.5
			c-0.4,3-2.8,4.3-5.4,4.8c1.1,1.1,1.7,2.7,1.7,4.2c0,2.3-1.3,4.2-3.2,5.5c-0.7,0.5-1.4,0.8-2.2,1.1c0.4,0.3,0.9,0.5,1.3,0.9
			c1.4,1,2.9,2.5,2.8,4.4c-0.1,2.1-2.3,3-4,3.8c-0.1,0-0.2,0.1-0.2,0.1c1,0.5,2,1.2,2.7,2.1c1.1,1.5,1.6,4.5-4,6.8
			c0.7,0.5,1.2,1,1.7,1.7c0.8,1.2,0.5,3,0.1,3.5c-0.3,0.6-0.8,0.9-1.3,1.3c-0.4,0.3-0.8,0.6-1.1,1c-0.1,1.1-0.2,2.3-0.3,3.4h-0.3
			c0-0.1,0-0.3,0-0.4c0,0,0,0,0,0c-0.1-0.1-0.3-0.2-0.4-0.3c-0.1,0.1-0.1,0.2-0.2,0.3c0.1,0.1,0.1,0.1,0.2,0.2c0,0,0.1,0,0.1,0.1
			c0-0.1,0.1-0.1,0.1-0.2c0-0.1,0.1,0,0.1,0.1c0,0.1-0.1,0.1-0.1,0.2H44c0,0,0,0-0.1-0.1c-0.1-0.1-0.1-0.1-0.2-0.2
			c0,0.1-0.1,0.1-0.1,0.2c0,0-0.1,0-0.1,0c0-0.1,0.1-0.2,0.1-0.3c-0.1-0.1-0.1-0.2-0.2-0.2c0,0,0-0.1,0-0.1c0.1,0.1,0.1,0.1,0.2,0.2
			c0-0.1,0.1-0.2,0.2-0.3c-0.2-0.2-0.3-0.3-0.5-0.5c0,0.1-0.1,0.1-0.2,0c0.1,0.4,0.1,0.8,0.2,1.2h-0.3c-0.2-1-0.3-2.1-0.4-3.1
			c-0.3-0.5-0.8-0.9-1.2-1.2c-0.5-0.4-1-0.8-1.3-1.3c-0.6-1.1-0.6-2.5,0.1-3.5c0.4-0.7,1-1.2,1.7-1.7c-1.1-0.5-2.2-0.9-3-1.6
			c-1.7-1.3-2.4-3.4-1-5.2c0.7-0.9,1.6-1.6,2.7-2.1c-0.1,0-0.1-0.1-0.2-0.1c-1.7-0.7-3.9-1.6-4-3.8c-0.1-1.9,1.4-3.4,2.8-4.4
			c0.4-0.3,0.8-0.6,1.3-0.9c-0.8-0.3-1.5-0.7-2.2-1.1c-1.9-1.2-3.2-3.2-3.2-5.5c0-1.6,0.6-3.1,1.7-4.2
			C34.2,42.1,31.7,40.8,31.4,37.8z M42.7,77.9c-0.1-0.2-0.2-0.3-0.3-0.5c0,0.1,0,0.2,0,0.3C42.5,77.8,42.6,77.9,42.7,77.9
			C42.7,78,42.7,78,42.7,77.9C42.7,78,42.7,77.9,42.7,77.9z M41,32.8c0.2,0,0.4-0.1,0.6,0.1c0-0.2,0.1-0.4,0.1-0.6
			c-0.2-0.9-0.4-1.9-0.5-2.9c0,0.1-0.1,0.1-0.1,0.2c0,0,0,0,0,0C41.1,30.6,41,31.7,41,32.8z M60.8,28.4c0.7,0.3,2.9,1.2,3.2,1.3
			c-0.5-0.8-1.1-1.5-1.7-2.1c-0.4-0.4-1.1-0.9-1.3-1.4c-1-0.2-1.9-0.4-2.8-0.7c0.3,0.2,0.6,0.4,0.9,0.6c1,0.7,2,1.3,2.9,2.2
			c0,0,0,0.1-0.1,0.1c-1-0.6-2-1.4-3-2c-1-0.6-3.3-2-3.3-2c0.4,0.4,0.8,0.8,1.3,1.1c0.4,0.4,0.7,0.8,1,1.3
			C58.8,27.3,59.8,27.9,60.8,28.4z M70.2,26.5c-2.4-0.5-4.6-1.9-6.9-2.8c1.7,0.8,3.3,2,4.7,3.2c1.4,0.2,2.7,0.4,4,0.3
			c-0.8-0.8-1.6-1.4-2.5-2.1c0,0,0,0,0-0.1c-1.1-0.1-2.2-0.3-3.3-0.5C67.6,25.1,68.9,25.8,70.2,26.5C70.3,26.4,70.3,26.5,70.2,26.5z
			 M37.4,31.2c0,0.4-0.1,0.8-0.1,1.3c0.2,0,0.5,0.1,0.7,0.2c0.3-1.2,0.7-2.5,0.8-3.8c0,0,0,0,0,0c-0.1-0.1-0.1-0.3-0.2-0.4
			C38.3,29.4,37.9,30.4,37.4,31.2z M45,38.1c-0.1,0.2-0.3,0.4-0.5,0.6c0.2,0.1,0.4,0.3,0.6,0.4c0-0.3,0-0.6,0-1
			C45.1,38.2,45,38.2,45,38.1C45,38.2,45,38.2,45,38.1z M35.8,29.3c1.4-1.3,2.3-3,2.6-4.9c0,0,0,0,0,0c-0.3,0.1-0.6,0.1-1,0.1
			c0,0,0,0,0,0c-0.3,1.2-0.7,2.5-1.3,3.6c0,0-0.1,0,0,0c0.4-1.2,0.8-2.4,1.1-3.6c-0.2,0-0.3,0-0.5,0c0,0,0,0.1,0,0.1
			C36.1,25.7,35.6,27.2,35.8,29.3z M55,29.3c-0.6-1.7-1.5-3.1-2.5-4.7c0,0-0.1-0.1-0.1-0.1c-0.1,0.1-0.2,0.1-0.3,0.1
			c-0.1,0-0.1,0-0.2,0.1c0,0,0,0,0,0c0.4,1.1,1,2,1.7,2.9c0,0,0,0.1-0.1,0.1c-0.8-0.8-1.4-1.8-1.8-2.9c0,0,0,0,0,0
			c-0.2,0.1-0.5,0.1-0.7,0.1c0,0,0,0,0,0c0.5,1,1,1.8,1.8,2.6C53.4,28.2,54.2,28.8,55,29.3z M43,42.2c-0.2,0.2-0.3,0.5-0.5,0.7
			c0.1,0.1,0.2,0.1,0.3,0.2c0,0,0,0,0,0.1c0.2,0,0.3-0.1,0.5-0.1c0.1-0.1,0.3-0.3,0.4-0.4C43.5,42.5,43.2,42.4,43,42.2z M45,45.1
			c-0.2-0.1-0.4-0.2-0.6-0.3c-0.2,0.2-0.3,0.3-0.5,0.5c0.2,0.2,0.4,0.3,0.6,0.4C44.7,45.5,44.8,45.3,45,45.1z M45,64.3
			c-0.1,0.1-0.2,0.2-0.3,0.3c0,0,0.1,0,0.1,0.1c0.1,0.1,0.2,0.1,0.4,0.1c0-0.1,0-0.3,0-0.4C45.1,64.3,45,64.3,45,64.3z M44.8,75.8
			c0-0.3,0-0.6,0-0.9c-0.1,0.2-0.3,0.4-0.5,0.6c0.1,0.1,0.2,0.1,0.3,0.2C44.7,75.7,44.8,75.7,44.8,75.8z M44.2,47.3
			c0.3,0.2,0.6,0.4,0.9,0.6c0-0.2,0-0.4,0-0.6c0,0,0,0,0,0c-0.2,0-0.4-0.2-0.6-0.3C44.4,47.2,44.3,47.3,44.2,47.3z M43.5,63.5
			c0.1-0.2,0.3-0.4,0.4-0.7c-0.1-0.1-0.3-0.2-0.4-0.3c-0.1,0.2-0.3,0.4-0.4,0.7C43.2,63.4,43.3,63.4,43.5,63.5L43.5,63.5z M44,80.9
			c0.1,0.1,0.1,0.1,0.2,0.1c-0.1-0.2-0.2-0.3-0.2-0.4c0,0.1-0.1,0.1-0.1,0.2C43.9,80.8,43.9,80.9,44,80.9z M46,32.9
			c-0.2-0.6-0.3-0.5-0.2,0.2C45.8,33,45.9,33,46,32.9z M43.5,50.2c0.2,0.1,0.3,0.2,0.5,0.3c0.2-0.2,0.3-0.4,0.5-0.7
			c-0.1,0-0.2-0.1-0.3-0.1c0,0,0-0.1,0-0.1c0.1,0,0.2,0.1,0.3,0.1c0.1-0.1,0.2-0.3,0.4-0.4c-0.2-0.1-0.3-0.2-0.5-0.3
			c-0.3,0.3-0.7,0.6-1,0.8c0,0-0.1,0,0-0.1c0.3-0.3,0.6-0.5,0.9-0.8c-0.1-0.1-0.3-0.2-0.4-0.3c0,0,0-0.1,0-0.1
			c0.2,0.1,0.3,0.2,0.5,0.3c0.3-0.3,0.5-0.6,0.8-0.8c0,0,0,0,0,0c-0.3-0.2-0.7-0.4-1-0.6c0,0-0.1,0.1-0.1,0.1c0,0-0.1,0,0,0
			c0-0.1,0.1-0.1,0.1-0.1c-0.3-0.3-0.7-0.6-0.9-1c0,0,0-0.1,0.1,0c0.3,0.3,0.6,0.7,1,0.9c0.1-0.1,0.2-0.2,0.3-0.3
			c-0.2-0.1-0.3-0.3-0.4-0.4c0,0,0-0.1,0,0c0.1,0.1,0.3,0.3,0.4,0.4c0.2-0.3,0.4-0.5,0.7-0.7c0,0,0,0,0,0c-0.2-0.1-0.4-0.1-0.5-0.3
			c-0.3,0.3-0.6,0.6-0.9,0.8c0,0-0.1,0,0-0.1c0.3-0.3,0.6-0.5,0.8-0.8c-0.2-0.1-0.4-0.3-0.6-0.5c-0.1,0.1-0.2,0.1-0.3,0.2
			c0,0-0.1,0,0,0c0.1-0.1,0.2-0.1,0.3-0.2c-0.1-0.1-0.2-0.2-0.3-0.4c0,0,0-0.1,0,0c0.1,0.1,0.2,0.2,0.3,0.3c0.2-0.1,0.4-0.3,0.5-0.5
			c-0.1-0.1-0.2-0.2-0.3-0.3c0,0,0-0.1,0.1-0.1c0.1,0.1,0.2,0.2,0.4,0.3c0,0,0,0,0,0c0.2-0.3,0.4-0.5,0.7-0.8c0,0,0,0,0,0
			c-0.3-0.1-0.5-0.3-0.8-0.5c-0.1,0-1.4,0.1-1.8,0.2c0,2.4,0.1,5,0.1,7.4c0.4,0.2,0.8,0.4,1.2,0.6c0,0,0.1,0,0.2-0.1
			c-0.2-0.1-0.4-0.2-0.6-0.4c0,0,0-0.1,0,0c0.2,0.1,0.4,0.3,0.7,0.4c0.1-0.1,0.2-0.1,0.4-0.2c0.1-0.1,0.2-0.2,0.3-0.3
			c-0.3-0.1-0.5-0.3-0.8-0.4c-0.1,0.1-0.1,0.2-0.2,0.3c0,0-0.1,0-0.1,0c0.1-0.1,0.1-0.2,0.2-0.3C43.8,50.5,43.6,50.4,43.5,50.2
			C43.4,50.2,43.5,50.2,43.5,50.2z M47.8,69.9c-0.1-0.1-0.2-0.2-0.3-0.4c-0.1,0.2-0.3,0.5-0.4,0.7c0,0,0,0,0,0c0,0,0,0,0.1,0.1
			C47.4,70.3,47.6,70.1,47.8,69.9C47.8,70,47.8,69.9,47.8,69.9C47.8,69.9,47.8,69.9,47.8,69.9z M33.8,28.2c0.8-0.8,1.3-1.6,1.8-2.6
			c-0.7,0.7-1.4,1.3-2.3,1.8c-1.2,1.7-2.6,3.3-3.8,5c2.2-1.3,4.3-2.6,5.8-4.7c0,0,0,0,0,0c0-0.6,0.1-1.1,0.3-1.7
			c-1.1,1.9-2.8,3.5-4.5,4.8c0,0-0.1,0,0,0C32.1,29.9,33,29,33.8,28.2z M26.7,23.7c2.3-0.1,4.3-1.2,6.3-2.3
			c-0.1-0.4-0.1-0.8-0.1-1.2c-0.8,0.4-1.6,0.8-2.3,1.2c-0.7,0.4-1.6,0.8-2.1,1.3c0,0-0.1,0-0.1-0.1c0.3-0.6,1-1,1.6-1.3
			c0.9-0.5,1.9-1,2.8-1.5c0,0,0,0,0,0c-0.3-0.1-0.6-0.2-1-0.3h0C31.8,19.6,28,21.8,26.7,23.7z M41.5,75.6c0-0.2,0.1-0.3,0.2-0.5
			c-0.1-0.1-0.2-0.2-0.3-0.3c0,0,0-0.1,0,0c0.1,0.1,0.2,0.2,0.2,0.2c0.1-0.1,0.1-0.3,0.2-0.4c0-0.2,0.1-0.3,0.2-0.5
			c-0.1-0.1-0.2-0.2-0.3-0.3c-0.2,0.5-0.4,0.9-0.5,1.4C41.3,75.4,41.4,75.5,41.5,75.6z M44.7,69.2c0.1,0.1,0.2,0.2,0.4,0.2
			c0-0.1,0-0.3,0-0.4C45,69,45,69,44.9,69C44.8,69.1,44.8,69.1,44.7,69.2z M47.2,75.4c-0.1-0.1-0.1-0.2-0.2-0.3
			c-0.1,0.2-0.2,0.3-0.3,0.5c0.1,0.1,0.1,0.2,0.2,0.2C47,75.8,47.1,75.6,47.2,75.4z M46.2,23.5c0.3,0.7-0.1,1.2-0.7,1.5
			c0,0,0.7,2.2,1.3,3.2c0.1-1.5,0.2-2.9,0.3-4.4c-0.2-0.2-0.4-0.4-0.6-0.6c0,0,0,0,0,0c0.1,1,0.1,1.9,0,2.9c0,0-0.1,0-0.1,0
			c0-0.9,0-1.9-0.2-2.8c0,0,0,0,0,0C46.2,23.4,46.2,23.4,46.2,23.5C46.2,23.4,46.2,23.4,46.2,23.5z M42.3,74.6
			c-0.3,0.8,0,1.6,0.3,2.4c0-1-0.1-2-0.1-3C42.4,74.1,42.3,74.3,42.3,74.6z M44.2,61.1c0.1,0.1,0.2,0.1,0.3,0.2c0,0,0,0,0.1,0
			c0.2,0,0.3-0.1,0.5-0.2c0,0,0.1-0.1,0.1-0.1c0-0.2,0-0.3,0-0.5c-0.1,0-0.3-0.1-0.4-0.1c-0.1,0.1-0.3,0.3-0.4,0.5
			C44.3,60.9,44.2,61,44.2,61.1z M49.5,60.5c-0.1,0.2-0.2,0.3-0.3,0.5c0.2-0.1,0.3-0.2,0.4-0.3C49.7,60.6,49.6,60.6,49.5,60.5z
			 M46,21.2c-0.2-0.1-0.3-0.3-0.5-0.4c-0.1,0.2-0.3,0.3-0.4,0.5c0.2,0.1,0.3,0.2,0.5,0.4C45.7,21.5,45.8,21.3,46,21.2z M55.3,20
			c0.4,0.3,4.4,1.9,5.2,2.4c0.1,0,0,0.2-0.1,0.1c-1.3-0.4-4.9-2-5.5-2.4c0,0.3,0,0.5,0,0.8c0,0,0,0,0.1,0c0,0,0,0,0.1,0
			c0.1,0.1,0.1,0.1,0.2,0.1c0.3,0.1,0.5,0.3,0.8,0.4c2.1,1.1,4.3,1.7,6.7,1.8c-1.3-1-5.6-3.3-6.3-3.8C56.1,19.8,55.7,19.9,55.3,20z
			 M28.5,25.6c-1.5,0.9-3.1,1.6-4.8,2.1c-1.8,1.3-3.5,2.6-5,4.2c3.2-0.3,7.3-3,7.3-2.9c1-1.1,2.2-2.1,3.4-2.9
			c-0.1,0-0.3,0.1-0.4,0.1c-0.1,0-0.2-0.1-0.2-0.2c0.1-0.1,0.1-0.3,0.2-0.4c-2.5,1.7-5,3.4-7.6,4.9c0,0-0.1,0,0-0.1
			C23.6,28.7,26.1,27.2,28.5,25.6z M33.4,22.2c-0.1-0.2-0.2-0.4-0.3-0.6c-1.7,1-3,2.5-3.9,4.2c1.8-0.6,3.4-1.4,5-2.5
			c0,0,0.1,0,0.1,0c-0.3-0.3-0.6-0.6-0.8-0.9c0,0,0,0,0,0.1c-0.6,0.5-1.2,0.9-1.8,1.4c-0.5,0.4-1,0.9-1.5,1.3c0,0-0.1,0,0-0.1
			c0.5-0.6,1-1.1,1.6-1.5c0.5-0.4,1-0.9,1.6-1.3C33.3,22.2,33.3,22.2,33.4,22.2z M39.4,36c-0.1,0-0.3-0.1-0.4-0.2
			C39,35.9,38.9,36,38.8,36C39,36,39.2,36,39.4,36C39.4,36,39.4,36,39.4,36z M30.5,25.6c-0.9,0.7-1.9,1.3-2.8,2.1
			c-0.8,0.7-1.5,1.4-2.2,2.2c2.2-0.3,4.1-1.3,6.1-2.6c0.3-0.8,0.7-1.5,1.1-2.2c-0.2,0.1-0.4,0.3-0.6,0.4c-0.5,0.4-1.1,0.7-1.6,1.1
			c-1.1,0.8-2.3,1.6-3.5,2.2c0,0-0.1,0,0,0c0.9-0.7,1.9-1.4,2.9-2.1c0.5-0.4,2.3-1.6,2.7-1.8c0-0.1-0.1-0.2,0-0.3
			C31.9,25,31.2,25.3,30.5,25.6z M23.5,26.8C23.4,26.8,23.4,26.8,23.5,26.8c1.1-1,2.5-1.6,3.8-2.2c1.2-0.6,2.4-1.2,3.7-1.8
			c0,0,0,0,0,0c-1.2,0.5-2.4,1-3.7,1.1c0,0,0,0.1,0,0.1c-2.1,1-3.9,2.5-5.6,4c2.8-0.7,5.4-1.8,7.8-3.3c0,0,0.1,0,0.1,0
			c0.3-0.5,0.7-0.9,1-1.3c-1,0.5-2,0.9-3,1.4C26.1,25.4,24.8,26.1,23.5,26.8z M44.2,75.4C44.1,75.3,44.2,75.3,44.2,75.4
			c0.1,0,0.1,0,0.1,0c0.2-0.3,0.4-0.5,0.6-0.7c0,0,0-0.1,0-0.1c-0.1-0.1-0.3-0.1-0.5-0.2c-0.2,0.3-0.4,0.5-0.6,0.8
			c0,0-0.1,0-0.1-0.1c0.2-0.3,0.4-0.6,0.6-0.8c-0.2-0.1-0.4-0.3-0.6-0.5c-0.1,0.1-0.1,0.2-0.2,0.3c0,0.1-0.1,0-0.1,0
			c0.2-0.4,0.5-0.7,0.8-1.1c-0.1-0.1-0.2-0.2-0.3-0.3c0,0-0.1,0.1-0.1,0.1c0,0.1-0.1,0-0.1,0c0-0.1,0.1-0.1,0.1-0.2c0,0,0,0,0,0
			c-0.4,0.3-0.7,0.6-1,1c0,0.1,0,0.2,0,0.4c0,1.2,0,2.4,0.1,3.6c0.2,0.4,0.4,0.8,0.6,1.1c0,0,0.1,0.1,0.1,0.1
			c0.1-0.2,0.2-0.4,0.3-0.6c0,0,0,0-0.1-0.1c0,0,0-0.1,0,0c0,0,0,0,0.1,0c0.1-0.2,0.2-0.3,0.3-0.5c-0.1-0.1-0.2-0.2-0.3-0.3
			c-0.2,0.3-0.4,0.6-0.6,0.9c0,0-0.1,0,0,0c0.2-0.3,0.3-0.6,0.5-0.9c-0.1-0.1-0.3-0.3-0.4-0.4c0-0.1,0-0.1,0.1-0.1
			c0.1,0.1,0.3,0.2,0.4,0.3c0.1-0.1,0.1-0.2,0.2-0.3c-0.1-0.1-0.1-0.2-0.2-0.3c0-0.1,0-0.1,0.1,0c0,0.1,0.1,0.2,0.2,0.2
			c0.1-0.2,0.2-0.3,0.3-0.4c-0.1-0.1-0.2-0.2-0.3-0.3c0,0,0-0.1-0.1-0.1c-0.1,0.2-0.2,0.3-0.3,0.5c0,0-0.1,0-0.1-0.1
			c0.1-0.2,0.2-0.3,0.3-0.5c-0.2-0.2-0.4-0.3-0.5-0.5c0,0,0-0.1,0.1-0.1c0.2,0.2,0.3,0.3,0.5,0.5C44.1,75.7,44.2,75.5,44.2,75.4
			L44.2,75.4z M54.6,22.3c0.7,0.3,3.6,2,4.4,2.5c0.1,0,0,0.1,0,0.1c-0.8-0.3-3.7-1.9-4.5-2.4c-0.1,0.2-0.2,0.3-0.3,0.5
			c2,1.4,4.1,2.3,6.5,2.8c-1.3-1.4-5.3-4.2-5.7-4.5c0,0,0,0,0,0C54.9,21.6,54.8,21.9,54.6,22.3z M38.3,26.6c-0.5,1.4-1,2.9-1.7,4.2
			c0,0-0.1,0,0,0c0.4-1.6,1-3.1,1.5-4.6c0,0,0-0.1,0-0.1c0,0,0,0.1,0,0.1c-0.3,0.8-0.8,1.6-1.3,2.3c-0.4,1.3-0.7,2.5-0.7,3.9
			c0,0,0.1,0,0.1,0c1-1.3,1.7-2.8,2.2-4.4C38.4,27.6,38.3,27.1,38.3,26.6z M48.9,26.5c0-0.9-0.1-1.9-0.1-1.9
			c-0.2-0.1-0.4-0.2-0.7-0.3c0.3,0.9,0.5,1.8,0.4,2.7c0,0,0,0,0,0c-0.1-0.9-0.3-1.9-0.6-2.8c0,0,0,0,0-0.1c-0.2-0.1-0.3-0.2-0.4-0.3
			c0.3,1.6,0.7,3.1,1.4,4.5C48.8,27.8,48.9,27.1,48.9,26.5z M43.1,78.7c-0.1-0.1-0.2-0.1-0.3-0.2c0,0.1,0,0.1,0,0.2
			c0,0,0.1,0.1,0.1,0.1c0.3,0.5,0.4,1.2,0.4,1.8C43.5,80,43.4,79.3,43.1,78.7z M49.4,65.7c-0.1-0.1-0.1-0.2-0.2-0.3
			c-0.1,0.2-0.2,0.3-0.3,0.5c0.1,0.1,0.1,0.1,0.2,0.2C49.2,66,49.3,65.9,49.4,65.7z M39,31.8c-0.1-1,0-2,0.2-2.9c0,0,0,0.1-0.1,0.1
			c0,0-0.1,0.1-0.1,0.1c-0.2,1-0.4,2.2-0.7,3.2c0.2-0.1,0.4-0.2,0.6-0.3C39,32,39,31.9,39,31.8z M51.4,26.9c0.1,0.4,0.2,0.7,0.3,1.1
			c0.1,0.6,0.2,1.3,0.2,1.9c1.4,1.4,2.8,2.7,4.5,3.7c-0.5-1.4-1.8-4.1-1.8-4.1c-0.8-0.6-1.8-1.3-2.6-2.1c0.8,1.4,1.6,2.7,2.6,4
			c0,0.1-0.1,0.1-0.1,0.1C53.3,30.1,52.2,28.6,51.4,26.9z M45.1,45.1c0-0.3,0-0.7,0-1c-0.2,0.3-0.4,0.5-0.6,0.7
			C44.7,44.9,44.9,45,45.1,45.1z M45.2,28.8c0-0.2,0-0.4,0-0.7c-0.1,0.2-0.2,0.3-0.3,0.5C45,28.6,45.1,28.7,45.2,28.8z M37,34.5
			c0.9,0.5,2,0.7,2.9,1c0.7,0.3,1.4,0.4,2.1,0.4c0,0,0,0,0,0c-0.1,0-0.2,0-0.3-0.1c0,0,0-0.1,0-0.1c0.1,0,0.2,0.1,0.3,0.1
			c0.2-0.2,0.4-0.4,0.6-0.5c0,0,0.1,0,0,0.1c-0.2,0.2-0.4,0.3-0.6,0.5c0.1,0,0.2,0.1,0.3,0.1c0,0,0,0,0,0c0,0,0,0,0,0
			c0.1-0.1,0.1-0.1,0.2-0.2c0,0-0.1,0-0.1-0.1c-0.1,0,0-0.1,0-0.1c0.1,0,0.1,0,0.2,0.1c0.1-0.1,0.2-0.2,0.3-0.3c0,0,0.1,0,0.1,0.1
			c-0.1,0.1-0.2,0.2-0.3,0.2c0.1,0,0.2,0.1,0.3,0.1c0.3-0.7-1-1.3-1.3-1.8c-0.2-0.2-0.3-0.7-0.4-0.8c-0.2-0.2-0.5-0.2-0.7-0.2
			c0,0,0,0,0,0c-0.1,0-0.1,0-0.2,0c0.2,0.3,0.4,0.5,0.6,0.7c0.2,0.1,0,0.4-0.2,0.3c-0.6-0.3-0.7-1.1-1.3-1.4c-0.6-0.4-1.5,0.1-2,0.3
			c-0.2,0.1-0.3,0.2-0.5,0.2c-0.1,0-0.1-0.1,0-0.1c0.1,0,0.2-0.1,0.4-0.2c-2.3-0.5-4.9,0.5-5.7,2.9c-0.9,2.5,0.5,4.9,2.8,6
			c0.7,0.3,1.5,0.5,2.2,0.7c0.2-0.2,0.5-0.4,0.7-0.6c-0.1,0-0.1,0-0.2-0.1c-0.1,0.1-0.2,0.2-0.3,0.4c0,0-0.1,0-0.1-0.1
			c0.1-0.1,0.2-0.2,0.3-0.3c-0.1,0-0.3-0.1-0.4-0.1c-0.1,0.1-0.3,0.3-0.4,0.4c0,0-0.1,0,0-0.1c0.1-0.1,0.3-0.3,0.4-0.4
			c-0.1,0-0.1,0-0.2-0.1c0,0,0-0.1,0-0.1c0.1,0,0.2,0,0.2,0.1c0.1-0.2,0.3-0.3,0.4-0.5c0,0-0.1,0-0.1-0.1c0,0,0-0.1,0-0.1
			c0,0,0.1,0,0.1,0.1c0.1-0.2,0.3-0.3,0.4-0.5c0,0,0.1,0,0.1,0.1c-0.1,0.2-0.2,0.4-0.4,0.5c0.1,0.1,0.2,0.1,0.3,0.2
			c0.2-0.2,0.3-0.3,0.5-0.5c-0.1,0-0.2-0.1-0.3-0.1c0,0,0-0.1,0-0.1c0.1,0,0.2,0.1,0.3,0.1c0.1-0.1,0.1-0.1,0.2-0.2
			c-1.4-0.2-2.8-0.7-3.6-1.6c-0.2,0-0.4-0.1-0.5-0.2c-0.1,0.1-0.2,0.2-0.3,0.4c0,0-0.1,0-0.1,0c0.1-0.1,0.2-0.3,0.3-0.4
			c0.1-0.1,0.1-0.2,0.2-0.2c0,0,0,0,0,0c-0.1-0.2-0.2-0.4-0.3-0.6c-0.1,0.2-0.3,0.5-0.5,0.7c0,0-0.1,0-0.1,0
			c0.2-0.2,0.3-0.5,0.5-0.7c-0.1-0.1-0.2-0.1-0.4-0.2c-0.1,0.1-0.2,0.2-0.3,0.3c0,0-0.1,0-0.1,0c0.1-0.1,0.2-0.2,0.3-0.3
			c0,0,0,0,0,0c0,0,0,0,0,0c0,0,0,0,0,0c0.1-0.1,0.2-0.3,0.3-0.4c0,0,0,0,0,0c0-0.1,0-0.3,0-0.4c0,0-0.1,0-0.1-0.1
			c0,0-0.1,0.1-0.1,0.1c0,0-0.1,0,0,0c0,0,0-0.1,0.1-0.1c0,0-0.1,0-0.1-0.1c0,0,0-0.1,0-0.1c0,0,0.1,0,0.2,0.1
			c0.1-0.2,0.3-0.4,0.4-0.6c0,0,0-0.1,0.1-0.1c-0.1,0-0.2-0.1-0.3-0.1c-0.1,0.2-0.2,0.4-0.3,0.5c0,0,0,0,0,0
			c0.1-0.2,0.2-0.4,0.3-0.5c-0.1,0-0.2-0.1-0.3-0.1c0,0,0-0.1,0-0.1c0.1,0,0.2,0.1,0.3,0.1c0.1-0.1,0.2-0.3,0.3-0.4c0,0-0.1,0-0.1,0
			v0c0,0,0.1,0,0.1,0c0.3-0.4,0.5-0.7,0.9-1c0,0,0.1,0,0,0.1c-0.1,0.1-0.3,0.3-0.4,0.4c-0.2,0.2-0.3,0.4-0.5,0.6
			c0.1,0,0.3,0.1,0.4,0.1c0.1-0.2,0.2-0.3,0.4-0.5c-0.1,0-0.2-0.1-0.3-0.1c0,0,0,0,0,0c0,0,0,0,0,0c0.1,0,0.2,0.1,0.3,0.1
			c0,0,0,0,0.1-0.1c0,0,0.1,0,0.1,0c0,0,0,0,0,0.1c0.2,0.1,0.4,0.2,0.6,0.3c1,0,1,0.7,2.1,0.9c0,0,0,0,0.1,0
			c-0.2-0.1-0.3-0.2-0.4-0.3c0,0,0-0.1,0,0c0.2,0.1,0.3,0.2,0.5,0.3c0.1-0.1,0.3-0.3,0.4-0.5c-0.1,0-0.3-0.1-0.4-0.1
			c-0.5-0.1-0.9-0.2-1.2-0.6C36.8,34.6,36.9,34.4,37,34.5z M42,63.8c0.1,0.1,0.2,0.2,0.3,0.2c0.1-0.1,0.2-0.1,0.3-0.2
			c0.1-0.2,0.2-0.4,0.3-0.5c-0.1-0.1-0.2-0.1-0.3-0.2c0,0,0-0.1,0-0.1c0.1,0.1,0.2,0.1,0.3,0.2c0.2-0.4,0.4-0.8,0.7-1.1
			c0,0,0.1,0,0.1,0c-0.1,0.1-0.2,0.3-0.3,0.4c0.1,0.1,0.3,0.2,0.4,0.2c0.2-0.3,0.4-0.7,0.6-1c0-0.1,0.2,0,0.1,0.1
			c-0.1,0.1-0.2,0.3-0.2,0.4c0,0,0,0,0,0c0.2,0.2,0.4,0.4,0.6,0.5c0,0,0,0,0,0c0.2-0.3,0.3-0.5,0.5-0.8c0,0-0.1-0.1-0.1-0.1
			c0,0,0-0.1,0,0c0,0,0.1,0.1,0.1,0.1c0.2-0.3,0.3-0.5,0.5-0.8c-0.9,0.4-1.9,0.6-2.7,0.8c-2.3,0.7-6.7,2.8-5.3,6
			c0.8,1.8,2.7,2.5,4.4,3.3c0.1-0.1,0.3-0.2,0.4-0.2c-0.2-0.1-0.4-0.3-0.6-0.4c0,0,0-0.1,0,0c0.2,0.1,0.4,0.3,0.6,0.4
			c0.1-0.1,0.2-0.1,0.3-0.2c-0.2-0.1-0.3-0.2-0.5-0.3c0,0,0-0.1,0-0.1c0.2,0.1,0.4,0.2,0.5,0.3c0,0,0.1-0.1,0.1-0.1
			c-0.2-0.1-0.4-0.2-0.6-0.3c-0.7-0.4-1.4-0.7-2-1.2c-0.6-0.5-1.1-1.4-1-2.2c-0.1,0-0.1-0.1-0.2-0.2c-0.1-0.1-0.2-0.2-0.3-0.3
			c-0.1,0.2-0.2,0.5-0.3,0.7c0,0-0.1,0-0.1,0c0.3-1.1,0.8-2.1,1.4-3c0,0,0.1,0,0.1,0c-0.3,0.5-0.5,0.9-0.7,1.4
			c0.1,0.1,0.3,0.2,0.4,0.3c0,0,0,0,0,0c0.1-0.2,0.2-0.5,0.3-0.7c-0.1-0.1-0.2-0.1-0.3-0.2c0,0,0-0.1,0-0.1c0.1,0.1,0.2,0.1,0.3,0.2
			c0.1-0.2,0.2-0.3,0.3-0.5c0,0-0.1,0-0.1-0.1c0,0,0-0.1,0,0c0,0,0.1,0,0.1,0.1c0.2-0.4,0.5-0.9,0.8-1.3c0,0,0.1,0,0.1,0
			c-0.3,0.4-0.5,0.9-0.7,1.3c0.1,0,0.1,0.1,0.2,0.1c0.2-0.1,0.3-0.2,0.5-0.3c-0.1-0.1-0.2-0.1-0.3-0.2c0,0,0,0,0,0
			c0.1,0.1,0.3,0.1,0.4,0.2c0,0,0,0,0,0c0.2-0.6,0.5-1.1,1-1.6c0,0,0.1,0,0.1,0C42.3,63.2,42.2,63.5,42,63.8z M45.1,76.7
			c0.3-0.7,0.5-1.4,0.2-2.1c0-0.1-0.1-0.2-0.1-0.4C45.2,75,45.2,75.8,45.1,76.7z M42.7,64.2c0,1.9,0,3.8,0,5.6
			c0.2,0.1,0.5,0.2,0.7,0.3c0.1,0,0.2,0.1,0.3,0.2c0,0,0,0,0,0c0.3-0.4,0.5-0.8,0.8-1.1c-0.2-0.1-0.3-0.2-0.4-0.4
			c-0.2,0.3-0.4,0.5-0.5,0.7c0,0-0.1,0-0.1,0c0.2-0.3,0.3-0.5,0.5-0.8c-0.1-0.1-0.2-0.2-0.3-0.3c0,0,0-0.1,0,0
			c0.1,0.1,0.2,0.2,0.3,0.3c0.1-0.1,0.1-0.2,0.2-0.3c-0.1-0.1-0.1-0.1-0.2-0.2c0,0,0-0.1,0,0c0,0.1,0.1,0.1,0.2,0.2
			c0.1-0.2,0.3-0.3,0.4-0.5c-0.1-0.1-0.3-0.2-0.4-0.3c-0.2,0.2-0.3,0.3-0.5,0.5c0,0-0.1,0-0.1-0.1c0.2-0.2,0.3-0.3,0.4-0.5
			c-0.2-0.2-0.4-0.4-0.6-0.6c0,0,0-0.1,0,0c0,0,0.1,0,0.1,0.1c0.3-0.3,0.5-0.6,0.8-0.9c-0.2-0.2-0.4-0.4-0.6-0.5c0,0,0,0,0,0
			c0,0,0,0,0,0c0.2,0.2,0.4,0.3,0.7,0.5c0.2-0.2,0.3-0.3,0.5-0.5c-0.3-0.2-0.5-0.3-0.8-0.5c-0.1,0.2-0.3,0.3-0.4,0.5
			c-0.1,0.1-0.1,0.1-0.2,0.2c0,0.1-0.1,0-0.1,0c0.3-0.4,0.5-0.8,0.8-1.1c-0.1-0.1-0.2-0.2-0.3-0.3c0,0,0-0.1,0.1,0
			c0.1,0.1,0.1,0.2,0.2,0.3c0.1-0.1,0.2-0.2,0.3-0.3c-0.3-0.1-0.5-0.2-0.8-0.3h0c-0.1,0.1-0.2,0.3-0.4,0.4c0,0.1-0.1,0-0.1-0.1
			c0.1-0.1,0.2-0.2,0.3-0.4c0,0-0.1,0-0.1,0c-0.1,0-0.2,0.1-0.2,0.1C43.3,64,43,64.1,42.7,64.2z M39.3,41c-0.1,0-0.2-0.1-0.2-0.1
			c-0.1,0.1-0.3,0.3-0.4,0.4C38.9,41.2,39.1,41.1,39.3,41z M40.3,26.9c-0.1,1.4-0.3,2.7-0.8,4c0,0.1-0.1,0-0.1,0
			c0.2-1.2,0.4-2.4,0.6-3.7c-0.1,0.4-0.3,0.8-0.5,1.2c-0.2,1.3-0.3,2.5-0.2,3.7c0.1,0,0.2,0,0.2,0c0.5-1,0.8-2.1,1.1-3.2
			C40.5,28.3,40.3,27.6,40.3,26.9z M44.8,76.4c0-0.2,0-0.3,0-0.5c-0.1-0.1-0.1-0.1-0.2-0.2l-0.3-0.2c0,0,0,0,0,0.1
			c-0.1,0.1-0.1,0.2-0.2,0.3c0,0,0,0,0,0.1C44.4,76.1,44.6,76.2,44.8,76.4z M50.4,49.1c-0.6,1-1.2,2-1.8,2.9c0,0,0.1,0,0.2,0.1
			c0.6-0.4,1.2-0.8,1.7-1.4c-0.1,0-0.2-0.1-0.2-0.1c-0.1,0.2-0.3,0.5-0.4,0.7c0,0-0.1,0-0.1,0c0.1-0.3,0.3-0.5,0.4-0.8
			c-0.1-0.1-0.2-0.2-0.3-0.3c0,0,0-0.1,0,0c0.1,0.1,0.2,0.1,0.3,0.2c0.2-0.4,0.4-0.7,0.6-1.1C50.7,49.3,50.5,49.2,50.4,49.1z
			 M55.8,37.8c0-0.2,0-0.3,0-0.5c-0.1,0.1-0.2,0.2-0.3,0.3c0,0,0,0,0.1,0C55.7,37.8,55.8,37.8,55.8,37.8z M49.6,27.5
			c0.4,1.6,1,3.1,1.6,4.6c0,0.1,0,0.1-0.1,0c-1-1.6-1.6-3.5-2-5.3c0,0.7-0.2,2.1-0.2,2.1c0.5,1.2,1,2.4,1.7,3.5c0.5-0.1,1-0.1,1.5,0
			c-0.1-0.6-0.2-1.1-0.3-1.6C51.8,30.8,50.2,28.6,49.6,27.5z M30.9,30.2c0.6-0.9,1.3-1.7,2-2.5c-0.5,0.2-0.9,0.5-1.4,0.6
			c-0.8,0.6-1.6,1.2-2.5,1.8c-1,0.7-1.9,1.4-2.9,2c0,0-0.1,0,0-0.1c0.8-0.7,1.7-1.3,2.5-2c0.9-0.6,1.8-1.3,2.7-1.9
			c0.1-0.2,0.1-0.4,0.2-0.5c-1,0.8-2.1,1.4-3.3,1.9c-1.4,1.2-2.6,2.3-3.7,3.8C26.8,32.5,28.9,31.4,30.9,30.2z M40.2,23
			c-2,1-4.9,1.1-5.7-1.5c-0.2-0.6-0.2-1.2-0.1-1.8c0-0.4,0.4-1.1,0.3-1.2c-0.1-0.1-0.8-0.1-1.2-0.1c-0.4-0.1-0.8-0.1-1.1-0.3
			c-0.5-0.2-1-0.7-1.5-0.7c-0.8,0-0.8,0.8-0.1,1.3c0.8,0.6,1.8,0.9,2.2,1c0,0,0.1,0,0.1,0.1c-0.3,2,1.1,3.7,2.9,4.2
			c1.8,0.5,3.6-0.2,5.1-1.2c0-0.1,0-0.2,0.1-0.3c-1.7,1.4-4.5,2.1-6.2,0.3c-0.8-0.9-1.2-2.1-1.1-3.2c0.1-0.8,0.2-0.8-0.9-0.9
			c-0.7-0.1-1.4-0.4-1.9-0.8c0,0,0,0,0,0c1,0.5,2,0.7,3.1,0.7c0.1,0,0.1,0.1,0.1,0.1c-0.5,1.9-0.1,3.9,1.8,4.8
			C37.5,24.1,39,23.7,40.2,23z M40.2,35.9c0.1,0.1,0.2,0.1,0.3,0.2c0.1,0,0.2,0,0.4,0C40.6,36,40.4,35.9,40.2,35.9
			c-0.1-0.1-0.2-0.1-0.3-0.1c0,0,0,0,0,0.1c-0.1,0.1-0.1,0.1-0.2,0.2c0.1,0,0.2,0,0.3,0.1c0,0,0,0,0,0c0.1,0,0.2,0,0.4,0
			C40.3,36,40.2,36,40.2,35.9C40.1,35.9,40.1,35.9,40.2,35.9z M40,31.8c-0.1,0.1-0.1,0.2-0.2,0.3c0,0,0.1,0.1,0.1,0.1
			c0-0.1,0-0.2,0-0.3C40,31.9,40,31.9,40,31.8z M42.5,51.7c0.3,0.1,0.6,0.2,0.8,0.3c0,0,0.1,0,0.1,0c-0.2-0.1-0.3-0.2-0.4-0.2
			c-0.1-0.1-0.3-0.1-0.4-0.2C42.5,51.6,42.5,51.6,42.5,51.7z M44.3,78.4c0.1-0.2,0.2-0.4,0.3-0.6c0,0-0.1-0.1-0.1-0.1
			c-0.1,0.2-0.2,0.3-0.3,0.5C44.1,78.3,44.2,78.4,44.3,78.4z M41.9,76.3C41.9,76.3,41.9,76.3,41.9,76.3c0-0.1-0.1-0.2-0.1-0.3
			c-0.1-0.1-0.2-0.2-0.3-0.3c-0.1,0.2-0.1,0.4-0.2,0.6c0,0-0.1,0-0.1,0c0-0.2,0.1-0.4,0.1-0.6c-0.1-0.1-0.2-0.2-0.3-0.3
			c0,0,0,0,0,0.1c0,0-0.1,0-0.1,0c0,0,0-0.1,0-0.1c0,0,0-0.1,0-0.1c0.1-0.5,0.3-1,0.5-1.5c0,0,0,0-0.1-0.1c0,0,0-0.1,0,0
			c0,0,0,0,0,0c0.3-0.7,0.6-1.4,1-2c0,0,0,0,0,0c0,0,0.1,0,0,0.1c-0.2,0.4-0.5,0.9-0.7,1.3c0.1,0.1,0.2,0.2,0.3,0.4
			c0,0,0.1-0.1,0.1-0.1c0.1-0.2,0.2-0.4,0.3-0.7c-0.1-0.1-0.1-0.1-0.2-0.2c0,0,0,0,0,0c0.1,0.1,0.1,0.1,0.2,0.2
			c0.1-0.2,0.2-0.4,0.3-0.7c0,0,0,0,0,0c0,0,0-0.1,0,0c0,0,0,0,0,0c0.1-0.2,0.2-0.4,0.4-0.6c0,0,0.1,0,0.1,0
			c-0.1,0.2-0.2,0.5-0.3,0.7c0.1,0.1,0.2,0.2,0.3,0.3c0,0,0.1-0.1,0.1-0.1c0.1-0.2,0.2-0.3,0.3-0.5c-0.1-0.1-0.2-0.2-0.2-0.3
			c0,0,0-0.1,0,0c0.1,0.1,0.2,0.2,0.2,0.2c0.1-0.3,0.3-0.5,0.4-0.8c0,0,0.1,0,0.1,0c-0.1,0.3-0.3,0.5-0.4,0.8c0,0.1,0.1,0.1,0.1,0.2
			c0.2-0.1,0.4-0.2,0.6-0.3c-0.1-0.1-0.2-0.3-0.4-0.4c0,0,0,0,0,0c0.1,0.1,0.3,0.3,0.4,0.4c0,0,0,0,0,0c0.1-0.2,0.2-0.3,0.3-0.5
			c0,0,0-0.1-0.1-0.1c0,0,0-0.1,0,0c0,0,0,0.1,0.1,0.1c0.1-0.2,0.3-0.4,0.4-0.7c0-0.1,0.1,0,0.1,0.1c-0.1,0.2-0.3,0.5-0.4,0.7
			c0.1,0.1,0.1,0.1,0.2,0.2c0.2-0.1,0.3-0.1,0.4-0.2c0,0,0,0,0,0c-0.1-0.1-0.1-0.2-0.2-0.3c0,0,0-0.1,0,0c0.1,0.1,0.1,0.2,0.2,0.3
			c0.2-0.5,0.5-1,0.8-1.4c0,0,0.1,0,0.1,0c-0.3,0.5-0.5,0.9-0.8,1.4c0.2-0.1,0.4-0.2,0.6-0.3c0-0.1,0.1-0.2,0.1-0.2
			c-0.1-0.1-0.1-0.2-0.2-0.3c0,0,0-0.1,0,0c0,0.1,0.1,0.1,0.1,0.2c0.1-0.3,0.3-0.5,0.4-0.8c0,0,0,0,0-0.1c0,0,0-0.1,0.1,0
			c0,0,0,0,0,0c0.1-0.2,0.3-0.4,0.4-0.6c0,0,0,0,0,0c0,0,0-0.1-0.1-0.1c0,0,0-0.1,0.1-0.1c0.1,0.1,0.2,0.3,0.4,0.4
			c0.1-0.2,0.2-0.4,0.4-0.6c0,0,0-0.1-0.1-0.1c0,0.1-0.1,0.1-0.1,0.2c0,0-0.1,0-0.1,0c0-0.1,0.1-0.2,0.1-0.2c0-0.1-0.1-0.2-0.2-0.3
			c0,0,0-0.1,0.1,0c0.1,0.1,0.1,0.1,0.1,0.2c0.1-0.2,0.2-0.5,0.3-0.7c-0.1-0.1-0.1-0.2-0.2-0.3c-0.1,0.2-0.3,0.4-0.4,0.7
			c0,0-0.1,0,0,0c0.3-0.5,0.5-1,0.8-1.4c0-0.1-0.1-0.2-0.2-0.2c-0.1,0.1-0.1,0.2-0.2,0.3c0,0.1-0.1,0-0.1,0c0.1-0.1,0.1-0.3,0.2-0.4
			c0-0.1-0.1-0.1-0.1-0.2c0,0,0-0.1,0,0c0,0.1,0.1,0.1,0.2,0.2c0.1-0.2,0.2-0.3,0.3-0.5c0,0,0-0.1-0.1-0.1c0,0,0-0.1,0.1-0.1
			c0,0,0,0,0,0c0.1-0.1,0.1-0.2,0.1-0.3c-0.7-0.9-1.8-1.7-3-2.2c-0.7,0.3-1.3,0.5-2,0.8c1.6,0.7,3,1.4,3.5,3.1
			c0.3,0.8-0.3,1.8-1,2.4c-0.6,0.5-1.3,0.8-2,1.2c-0.7,0.4-1.5,0.8-2.1,1.3c-0.2,0.1-0.3,0.2-0.5,0.3c-0.8,0.6-1.7,1.4-1.9,2.4
			c-0.3,1,0.1,2.2,0.8,2.9c0.5,0.5,1.2,0.8,1.6,1.3c0-0.1,0-0.1,0-0.2c-0.1,0-0.1-0.1-0.2-0.1c0,0,0-0.1,0-0.1
			c0.1,0,0.1,0.1,0.2,0.1c0-0.1,0-0.2,0-0.3c0,0,0,0,0,0c-0.1,0-0.1-0.1-0.2-0.1c-0.1-0.1-0.2-0.1-0.3-0.2c0,0.1,0,0.2-0.1,0.3
			c0,0-0.1,0-0.1,0c0-0.1,0-0.2,0.1-0.4c-0.1-0.1-0.1-0.1-0.2-0.2c0,0,0-0.1,0,0c0,0.1,0.1,0.1,0.2,0.2c0-0.1,0-0.2,0.1-0.3
			c0,0,0-0.1,0-0.1c-0.2-0.1-0.3-0.3-0.4-0.5c0,0.2-0.1,0.4-0.1,0.6c0,0.1-0.1,0.1-0.1,0c0-0.2,0-0.5,0.1-0.7
			c-0.1-0.2-0.2-0.3-0.3-0.4c0,0,0-0.1,0.1,0c0.1,0.1,0.2,0.2,0.3,0.3C41.9,76.5,41.9,76.4,41.9,76.3z M43.5,22.9
			c-0.2-0.1-0.5-0.3-0.7-0.4c-0.1,0-0.2,0.1-0.3,0.1C42.7,22.7,43.4,22.9,43.5,22.9z M49.5,35.4c-0.1,0.1-0.2,0.3-0.3,0.4
			c0.1,0,0.2,0,0.3,0.1c0,0,0.1,0,0.2-0.1c0,0,0.1-0.1,0.1-0.1c-0.1,0-0.2-0.1-0.3-0.1c0,0,0-0.1,0-0.1c0.1,0,0.3,0,0.4,0.1
			c0.2-0.2,0.3-0.4,0.4-0.7c-0.2,0.1-0.4,0.1-0.7,0.2c-0.7,0.1-1.4,0.4-2.1,0.6c-0.2,0.1-0.5,0.2-0.7,0.2c0.7,0,1.5,0,2.1-0.1
			c0,0,0-0.1,0.1-0.1c-0.2,0-0.3-0.1-0.5-0.1c0,0,0-0.1,0-0.1c0.2,0,0.3,0,0.5,0.1C49.2,35.7,49.3,35.5,49.5,35.4
			C49.5,35.3,49.5,35.4,49.5,35.4z M40.6,23.6c0,0.7-0.1,1.4-0.2,2c0.1,1.2,0.2,2.3,0.6,3.5c0.5-1.3,0.9-2.7,0.9-4.2
			c0-0.4-0.6-0.8-0.4-1.3c0,0,0,0-0.1,0c-0.2-0.1-0.3-0.3-0.3-0.5c0,0,0,0-0.1,0c0,0,0,0,0,0c0.1,1.5,0.2,3-0.1,4.4c0,0-0.1,0-0.1,0
			c0-1.4,0.1-2.8,0-4.3C40.8,23.4,40.7,23.5,40.6,23.6C40.6,23.5,40.6,23.6,40.6,23.6z M49.4,68c-0.1,0.2-0.2,0.4-0.3,0.7
			c0,0.1,0.1,0.1,0.1,0.2c0.2-0.2,0.3-0.4,0.4-0.6C49.5,68.2,49.4,68.1,49.4,68z M45.5,26.8c0,0.9,0,1.9-0.1,2.8
			c0.2,0.6,0.4,1.2,0.6,1.8c0.2-1,0.3-2.1,0.6-3.1c0,0,0,0,0,0c-0.3-0.5-0.6-1.1-0.8-1.6c0.2,0.9,0.3,1.8,0.2,2.7c0,0-0.1,0-0.1,0
			C45.8,28.5,45.7,27.6,45.5,26.8z M46,76.8c0.1-0.1,0.1-0.3,0.2-0.4c0,0,0,0,0,0c0,0,0-0.1,0-0.1c0.1-0.2,0.3-0.5,0.4-0.7
			c0,0,0,0,0,0c0,0,0-0.1,0,0c0,0,0,0,0,0c0.1-0.2,0.2-0.3,0.3-0.5c-0.1-0.1-0.1-0.2-0.2-0.3c-0.1,0.2-0.2,0.4-0.3,0.6
			c0,0-0.1,0-0.1,0c0.1-0.2,0.2-0.4,0.3-0.6c0-0.1-0.1-0.2-0.2-0.3c0,0,0-0.1,0.1,0c0,0.1,0.1,0.1,0.1,0.2c0.1-0.2,0.2-0.3,0.3-0.5
			c0-0.1-0.1-0.1-0.2-0.2c0,0,0-0.1,0,0c0,0,0.1,0.1,0.1,0.1c0-0.1,0.1-0.2,0.2-0.3c-0.4-0.8-1-1.3-1.7-1.8
			c-0.1-0.1-0.2-0.1-0.3-0.2c0,0,0,0,0,0c-0.1,0.1-0.2,0.1-0.3,0.2c0,0,0,0,0,0c-0.2,0.1-0.5,0.3-0.7,0.4c0.4,0.3,0.7,0.6,0.9,0.9
			c0.1,0.1,0.1,0.2,0.2,0.3c0,0,0,0,0,0c0.5,0.8,0.8,1.8,0.5,2.8c-0.2,0.6-0.6,1.2-0.9,1.8c0.1,0.1,0.1,0.2,0.2,0.3
			c0.1-0.2,0.3-0.3,0.5-0.4c-0.1-0.1-0.2-0.1-0.2-0.2c0,0,0,0,0,0c0.1,0.1,0.2,0.1,0.2,0.2c0.2-0.1,0.3-0.2,0.5-0.4
			c0,0-0.1-0.1-0.1-0.1c0,0.1-0.1,0.1-0.1,0.2c0,0.1-0.1,0-0.1,0c0-0.1,0.1-0.1,0.1-0.2c-0.1-0.1-0.2-0.2-0.2-0.2c0,0,0-0.1,0,0
			c0.1,0.1,0.2,0.2,0.2,0.2c0.1-0.2,0.3-0.5,0.4-0.7c0-0.1-0.1-0.2-0.2-0.2C46.1,76.6,46.1,76.8,46,76.8C46,76.9,45.9,76.9,46,76.8z
			 M44.7,30.7c-0.4-0.3-0.9-0.7-1.2-1.1c0,0,0,0,0,0c0.2,0.2,0.4,0.4,0.7,0.6c0.1-0.1,0.2-0.3,0.3-0.4c0,0,0,0,0,0
			c-0.1-0.1-0.3-0.2-0.4-0.3c0,0,0,0,0,0c0,0-0.1,0,0,0c0,0,0,0,0-0.1c0,0,0-0.1-0.1-0.1c0,0,0-0.1,0.1-0.1c0,0,0,0,0.1,0.1
			c0.2-0.2,0.3-0.5,0.5-0.7c-0.2-0.1-0.4-0.3-0.6-0.4c0,0,0,0,0,0c0,0,0,0,0,0c-0.3-0.2-0.5-0.5-0.8-0.7c-0.1,0,0-0.1,0.1-0.1
			c0.3,0.2,0.5,0.4,0.8,0.6c0.1-0.2,0.3-0.3,0.4-0.5c-0.2-0.1-0.4-0.3-0.5-0.5c0,0,0,0,0,0.1c0,0,0,0,0,0c0,0,0,0,0-0.1c0,0,0,0,0,0
			c0,0,0-0.1,0,0c0,0,0,0,0,0c0.2-0.2,0.3-0.4,0.5-0.6c-0.2-0.1-0.4-0.3-0.6-0.5c-0.1,0,0-0.1,0.1-0.1c0.2,0.2,0.4,0.3,0.6,0.4
			c0.2-0.2,0.4-0.5,0.6-0.7l0,0c-0.2,0.3-0.4,0.5-0.5,0.7c0.2,0.1,0.4,0.3,0.6,0.4c0,0,0,0,0,0c0-0.5,0-1,0-1.5
			c-0.9,0.3-2.1,0.3-2.9-0.1c0.1,3,0.1,6.1,0.1,9.1c0.5,0.5,1.4,0.9,1.1,1.8c0.2,0.2,0.3,0.4,0.5,0.5c0,0,0.1-0.1,0.1-0.1
			c0-0.1,0-0.1,0-0.2c0,0,0,0-0.1,0c-0.2-0.3-0.1-0.6,0-0.8c-0.1,0.1-0.2,0.1-0.3,0.2c0,0-0.1,0,0-0.1c0.2-0.1,0.3-0.3,0.5-0.5
			c-0.1-0.1-0.2-0.2-0.3-0.3c0,0,0-0.1,0,0c0.1,0.1,0.2,0.2,0.3,0.3c0.2-0.2,0.3-0.4,0.5-0.6c-0.2-0.1-0.3-0.2-0.5-0.3
			c-0.2,0.2-0.3,0.3-0.5,0.4c0,0-0.1,0-0.1-0.1c0.2-0.1,0.3-0.3,0.4-0.5c-0.4-0.3-0.7-0.7-0.9-1c0,0,0-0.1,0.1-0.1
			c0.3,0.3,0.6,0.6,0.9,0.8c0,0,0.1,0,0.1,0c0.1-0.2,0.3-0.4,0.4-0.5c-0.1-0.1-0.3-0.2-0.4-0.3c-0.1,0.2-0.2,0.3-0.3,0.5
			c0,0.1-0.1,0-0.1,0c0.1-0.2,0.2-0.3,0.3-0.5c-0.1-0.1-0.3-0.2-0.4-0.3c0,0,0-0.1,0.1-0.1c0.1,0.1,0.2,0.2,0.4,0.3
			c0.2-0.4,0.4-0.7,0.6-1c-0.2-0.1-0.3-0.2-0.5-0.3c0,0,0,0,0,0.1c-0.2,0.3-0.4,0.5-0.6,0.8c0,0-0.1,0-0.1,0
			c0.2-0.3,0.4-0.6,0.7-0.9c-0.4-0.3-0.7-0.5-1-0.9c0,0,0-0.1,0.1-0.1c0.3,0.3,0.7,0.6,1,0.8C44.5,31.1,44.6,30.9,44.7,30.7z
			 M51.2,27.3c-0.1-0.7-0.5-2.3-0.5-2.3c-0.3,0-0.6,0-0.9,0c0.1,0.6,0.3,1.2,0.5,1.7c0.2,0.6,0.5,1.2,0.7,1.8c0,0.1,0,0.1-0.1,0
			c-0.7-1-1.1-2.4-1.4-3.6c-0.2,0-0.4-0.1-0.6-0.1c0.4,2,1.4,3.7,2.6,5.3C51.5,29.1,51.4,28.2,51.2,27.3z M45.1,43.2
			c0.8,0.3,1.6,0.6,2.3,1.2c1.2,1,2.1,2.6,1.4,4.1c-0.7,1.7-2.6,2.5-4.1,3.2c-2,1-4.1,2-5.8,3.5c-0.9,0.7-1.7,1.6-1.9,2.8
			c-0.3,1.4,0.5,2.4,1.6,3.2c0.8,0.5,1.7,0.9,2.6,1.3c0.1-0.1,0.3-0.1,0.4-0.2v0c0,0,0.1-0.1,0.1-0.2c-0.1,0-0.3-0.1-0.4-0.2
			c0,0,0,0.1,0,0.1c0,0.1-0.1,0-0.1,0c0,0,0-0.1,0-0.1c-0.1,0-0.1-0.1-0.2-0.1c0,0,0,0,0,0c0.1,0,0.1,0.1,0.2,0.1
			c0.1-0.3,0.2-0.5,0.3-0.7C41.3,61,41.2,61,41,60.9c-0.1,0.2-0.3,0.4-0.4,0.6c0,0-0.1,0-0.1,0c0.1-0.2,0.3-0.4,0.4-0.7
			c-0.1-0.1-0.3-0.2-0.4-0.3c0,0.2-0.1,0.4-0.1,0.5c0,0,0,0,0,0c0-0.2,0.1-0.4,0.1-0.5c-0.4-0.3-0.7-0.7-0.8-1.2
			c-0.2-0.1-0.4-0.3-0.6-0.4c0,0,0-0.1,0-0.1c0.2,0.1,0.4,0.2,0.5,0.3c-0.1-0.2-0.1-0.4-0.1-0.7c0-0.1,0-0.2,0-0.3h0
			c-0.1,0-0.2,0-0.2-0.1c0,0,0,0-0.1,0c-0.1,0.3-0.3,0.5-0.4,0.8c0,0-0.1,0-0.1,0c0.1-0.3,0.2-0.6,0.4-0.9c0,0,0-0.1-0.1-0.1
			c0,0,0-0.1,0,0c0,0,0,0,0.1,0.1c0.1-0.2,0.2-0.4,0.3-0.6c-0.1-0.1-0.3-0.2-0.4-0.2c0,0,0-0.1,0,0c0.1,0.1,0.3,0.2,0.4,0.2
			c0.2-0.3,0.3-0.5,0.5-0.8c-0.1-0.1-0.3-0.2-0.4-0.3c0,0,0-0.1,0,0c0.2,0.1,0.4,0.3,0.6,0.4c0.1-0.1,0.2-0.2,0.3-0.3
			c0.1-0.3,0.2-0.5,0.4-0.7c0,0-0.1-0.1-0.1-0.1c0,0,0,0,0,0l0.2,0.1c0.2-0.3,0.3-0.5,0.6-0.8c0,0,0.1,0,0.1,0.1
			c-0.1,0.1-0.2,0.2-0.3,0.3c0.2,0,0.4,0.1,0.5,0.2c0.1-0.1,0.3-0.2,0.4-0.2c0-0.1,0.1-0.2,0.1-0.3l-0.5-0.2c0,0,0,0,0,0
			c0.2,0.1,0.3,0.2,0.5,0.2c0.1-0.2,0.2-0.4,0.3-0.6c-0.1,0-0.1-0.1-0.2-0.1c0,0,0,0,0,0c0.1,0,0.1,0.1,0.2,0.1
			c0.1-0.2,0.3-0.4,0.4-0.6c0,0,0.1,0,0.1,0.1c-0.1,0.2-0.2,0.4-0.3,0.6c0.2,0.1,0.3,0.2,0.5,0.3c0.2-0.2,0.3-0.5,0.5-0.7
			c-0.1-0.1-0.2-0.2-0.4-0.2c0,0,0,0,0,0c0.1,0.1,0.3,0.1,0.4,0.2c0.2-0.3,0.5-0.6,0.7-0.9c0,0,0.1,0,0.1,0.1
			c-0.2,0.3-0.4,0.6-0.7,0.8c0.2,0.1,0.4,0.2,0.6,0.3c0,0,0,0,0,0c0,0,0.1,0,0.1,0c0.3-0.5,0.6-1,0.9-1.5c0,0,0.1,0,0.1,0
			c-0.3,0.5-0.6,0.9-0.8,1.4c0.3-0.1,0.6-0.2,0.9-0.4c0,0,0,0,0-0.1c-0.1,0-0.2-0.1-0.3-0.1c0,0,0,0,0,0l0.3,0.1
			c0.1-0.2,0.3-0.5,0.5-0.7c-0.2-0.1-0.3-0.2-0.5-0.3c0,0,0-0.1,0-0.1c0.2,0.1,0.3,0.2,0.5,0.3c0.2-0.3,0.4-0.5,0.5-0.7
			c-0.1-0.1-0.2-0.1-0.2-0.2c0,0,0,0,0,0c0.1,0.1,0.2,0.1,0.3,0.2c0.1-0.1,0.2-0.3,0.3-0.4c0-0.1,0.1,0,0.1,0
			c-0.1,0.1-0.2,0.3-0.3,0.4c0.2,0.1,0.4,0.2,0.6,0.4c0.1-0.2,0.3-0.5,0.4-0.7c0,0-0.1,0-0.1-0.1c0,0,0-0.1,0.1-0.1
			c0,0,0.1,0,0.1,0.1c0.3-0.5,0.6-1,1-1.4c0,0,0.1,0,0.1,0c-0.3,0.5-0.6,1-1,1.4c0.2,0.1,0.3,0.2,0.5,0.3c0.6-1,1.1-2,1.8-2.9
			c0,0-0.1-0.1-0.2-0.1c0,0,0-0.1,0-0.1c0.2,0.1,0.5,0.3,0.7,0.4c0.2-0.3,0.3-0.6,0.5-0.8c0-0.1,0.1,0,0.1,0.1
			c-0.2,0.3-0.3,0.6-0.5,0.9c0.1,0.1,0.2,0.1,0.3,0.2c0.2-0.4,0.3-0.7,0.5-1.1c-0.4-0.1-0.8-0.5-1.1-0.7c0,0,0-0.1,0,0
			c0.2,0.2,0.4,0.3,0.6,0.4c0.1,0.1,0.3,0.2,0.5,0.2c0.1-0.3,0.2-0.7,0.2-1c0-0.3,0-0.6,0-0.8c0,0,0,0-0.1,0
			c-0.1,0.2-0.2,0.4-0.3,0.6c0.1,0.1,0.2,0.1,0.3,0.2c0,0,0,0,0,0c0,0,0,0,0,0c-0.1,0-0.2-0.1-0.3-0.2c-0.1,0.2-0.2,0.5-0.3,0.7
			c0,0-0.1,0-0.1,0c0.1-0.2,0.2-0.5,0.2-0.7c0,0-0.1-0.1-0.1-0.1l-0.3-0.2c0,0.1-0.1,0.2-0.1,0.3c0,0-0.1,0-0.1,0
			c0-0.1,0.1-0.2,0.1-0.3l-0.2-0.1c-0.1,0,0-0.1,0-0.1c0.1,0,0.1,0.1,0.2,0.1c0.1-0.2,0.1-0.5,0.2-0.7c-0.2-0.1-0.3-0.2-0.5-0.3
			c0,0,0-0.1,0-0.1c0.2,0.1,0.4,0.2,0.5,0.3c0.1-0.2,0.2-0.4,0.3-0.6c-0.2-0.1-0.5-0.3-0.7-0.5c-0.1,0.3-0.3,0.6-0.4,1
			c0,0-0.1,0-0.1,0c0.1-0.3,0.2-0.7,0.3-1c-0.1,0-0.1-0.1-0.2-0.1c-0.1,0,0-0.1,0-0.1c0.1,0,0.1,0.1,0.2,0.1
			c0.1-0.2,0.2-0.4,0.3-0.5c-0.2-0.1-0.4-0.3-0.5-0.4c-0.1,0.3-0.2,0.5-0.3,0.8c0,0.1-0.1,0-0.1,0c0.1-0.3,0.2-0.6,0.3-0.9
			c-0.1-0.1-0.2-0.1-0.3-0.2c0,0,0-0.1,0,0c0.1,0.1,0.2,0.1,0.3,0.2c0.1-0.1,0.1-0.3,0.2-0.4c-0.1-0.2-0.3-0.3-0.4-0.5
			c-0.2,0.3-0.4,0.6-0.5,0.9c0,0-0.1,0-0.1,0c0.2-0.3,0.3-0.6,0.5-0.9c-1.2,0.2-2.3,0.3-3.3,0.3c-0.1,0-0.6,0-0.6,0
			C45.9,43.1,45.5,43.1,45.1,43.2C45.1,43.2,45.1,43.2,45.1,43.2z M47.8,32.6c-0.5,0.4-0.7,1.1-1.3,1.4c-0.2,0.1-0.3-0.2-0.2-0.3
			c0.1,0,0.1-0.1,0.2-0.1c-0.1,0-0.2-0.1-0.3-0.1c0,0,0-0.1,0,0c0.1,0,0.2,0.1,0.3,0.1c0.1-0.1,0.2-0.2,0.2-0.3
			c-0.1,0-0.3-0.1-0.4-0.1c0,0,0-0.1,0,0c0.1,0,0.3,0.1,0.4,0.1c0-0.1,0.1-0.1,0.2-0.2c-0.3,0.1-0.7,0-0.9,0.3
			c-0.2,0.2-0.3,0.6-0.4,0.8c-0.2,0.3-1,1-1,1c-0.4,0.2-0.4,0.5-0.2,0.8c0.1,0.2,0.6,0.1,0.8,0.1c0,0,0,0,0.1-0.1
			c-0.2-0.1-0.3-0.1-0.5-0.2c0,0,0,0,0,0c0.2,0.1,0.3,0.1,0.5,0.2c0.2-0.2,0.3-0.3,0.5-0.5c0,0,0.1,0,0.1,0c0,0.1-0.1,0.1-0.1,0.2
			c0,0,0,0,0,0c0.1,0.1,0.3,0.1,0.4,0.1c0.2-0.3,0.5-0.6,0.7-0.9c0-0.1,0.1,0,0.1,0.1c-0.1,0.2-0.2,0.4-0.4,0.6
			c-0.1,0.1-0.2,0.2-0.3,0.3c0.1,0,0.2,0,0.3,0c0.1,0,0.2,0,0.3-0.1c0,0,0,0,0,0c0,0,0-0.1,0.1-0.1c-0.1,0-0.2-0.1-0.3-0.1
			c0,0,0,0,0,0c0,0,0,0,0,0c0.1,0,0.3,0,0.4,0.1c0.2-0.3,0.3-0.6,0.5-0.8c0,0,0.1,0,0.1,0c-0.2,0.3-0.4,0.6-0.5,0.8
			c0.1,0,0.1,0,0.2,0c0.1,0,0.3-0.1,0.4-0.1v0l0.1-0.1c0,0-0.1,0-0.1-0.1c0,0,0-0.1,0-0.1c0.1,0,0.1,0.1,0.2,0.1
			c0-0.1,0.1-0.1,0.1-0.2c0.1-0.1,0.1-0.2,0.2-0.3c0,0,0.1,0,0,0c0,0.1-0.2,0.2-0.2,0.3c0,0-0.1,0.1-0.1,0.1c0.1,0,0.1,0,0.2,0
			c0.9-0.3,1.9-0.4,2.6-0.8c0.1-0.1,0.2,0.1,0.1,0.1c-0.1,0.1-0.2,0.2-0.3,0.3c-0.1,0.1-0.1,0.3-0.2,0.4c0.1,0,0.3,0.1,0.4,0.1
			c1.1-1.1,2.2-0.4,2.6,0.2c0.6,0.8,0.4,1.8-0.1,2.6c-1.3,2-4.5,2.2-6.7,2.4c-2.4,0.2-6.1-0.3-8.5,1.6c-2.4,1.9-3.1,5.3-1.4,7.8
			c1,1.4,2.5,2.3,4,3v0c0.3-0.6,0.7-1.3,1.3-1.8c0,0,0.1,0,0.1,0.1c0,0.1-0.1,0.1-0.1,0.2c0.2,0,0.3,0.1,0.5,0.2
			c0.1-0.1,0.1-0.1,0.2-0.2c-0.4-0.2-0.8-0.4-1.2-0.6c0,0,0,0,0,0c0,0,0,0,0,0c-0.2,0.3-0.5,0.6-0.7,0.8c0,0.1-0.1,0-0.1-0.1
			c0.2-0.3,0.4-0.6,0.7-0.8c-0.2-0.1-0.5-0.2-0.7-0.3c0,0,0,0,0,0.1c-0.1,0.1-0.3,0.3-0.4,0.4c0,0-0.1,0-0.1,0
			c0.1-0.1,0.2-0.3,0.3-0.4c0,0,0,0,0.1-0.1c-0.2-0.1-0.3-0.1-0.5-0.2c0,0,0,0,0,0c0.2,0.1,0.3,0.1,0.5,0.2c0-0.1,0.1-0.1,0.1-0.2
			c-0.2-0.1-0.3-0.3-0.5-0.4c-0.1,0.2-0.3,0.4-0.4,0.6c0,0-0.1,0,0,0c0.1-0.2,0.3-0.4,0.4-0.6c0,0-0.1-0.1-0.1-0.1
			c-0.3-0.1-0.5-0.3-0.8-0.4c0,0,0-0.1,0,0c0.2,0.1,0.4,0.2,0.6,0.3c-0.2-0.2-0.4-0.4-0.5-0.7c-0.2,0.2-0.3,0.4-0.5,0.6
			c0,0-0.1,0,0,0c0.2-0.2,0.3-0.5,0.5-0.7c0,0,0,0,0-0.1c-0.2-0.1-0.4-0.2-0.5-0.3c0,0,0-0.1,0-0.1c0.1,0.1,0.3,0.2,0.4,0.2
			c0,0,0-0.1,0-0.1c-0.1-0.2-0.2-0.5-0.2-0.7c-0.2,0.3-0.5,0.7-0.6,1c0,0-0.1,0-0.1,0c0.1-0.4,0.3-0.8,0.6-1.1
			c-0.2-0.1-0.4-0.2-0.6-0.3c-0.1,0.2-0.3,0.4-0.4,0.6c0,0-0.1,0-0.1,0c0.3-0.4,0.5-0.9,0.8-1.3c0,0,0.1,0,0.1,0
			c-0.1,0.2-0.2,0.4-0.3,0.6c0.2,0.1,0.4,0.2,0.5,0.3c0-0.4,0.1-0.8,0.2-1.2c0.2-0.6,0.6-1.2,1.1-1.7c-0.1-0.1-0.2-0.1-0.4-0.2
			c-0.2,0.2-0.4,0.5-0.5,0.7c0,0,0,0,0.1,0c0,0,0,0.1,0,0c0,0-0.1,0-0.1,0c-0.2,0.3-0.4,0.5-0.6,0.8c0.2,0.1,0.3,0.2,0.4,0.3
			c0,0,0,0,0,0c0,0,0,0,0,0c-0.2-0.1-0.3-0.1-0.5-0.2c-0.2,0.2-0.3,0.4-0.5,0.6c0,0-0.1,0-0.1,0c0.2-0.2,0.3-0.4,0.5-0.6
			c-0.1-0.1-0.3-0.2-0.4-0.3c0,0,0-0.1,0-0.1c0.1,0.1,0.3,0.1,0.4,0.2c0.2-0.3,0.4-0.5,0.6-0.8c-0.2-0.1-0.5-0.2-0.7-0.3
			c-0.3,0.4-0.5,0.8-0.8,1.1c0,0-0.1,0-0.1,0c0.3-0.4,0.5-0.8,0.8-1.2c-0.2-0.1-0.4-0.2-0.5-0.3c-0.1,0.1-0.2,0.2-0.2,0.4
			c0,0-0.1,0-0.1,0c0.1-0.1,0.1-0.3,0.2-0.4c-0.1,0-0.1-0.1-0.2-0.1c0,0,0,0,0,0c0.1,0,0.1,0.1,0.2,0.1c0.1-0.2,0.3-0.4,0.5-0.6
			c0,0,0.1,0,0.1,0.1c-0.2,0.2-0.4,0.4-0.5,0.6c0.2,0.1,0.4,0.2,0.5,0.3c0.2-0.3,0.4-0.5,0.5-0.8c-0.1,0-0.1-0.1-0.2-0.1
			c0,0,0-0.1,0-0.1c0.1,0,0.1,0.1,0.2,0.1c0.2-0.3,0.4-0.6,0.7-0.9c0,0,0.1,0,0.1,0.1c-0.2,0.3-0.4,0.6-0.6,0.9
			c0.2,0.1,0.4,0.2,0.6,0.3c0.2-0.3,0.4-0.5,0.6-0.8c-0.2-0.1-0.3-0.2-0.5-0.3c0,0,0-0.1,0,0c0.2,0.1,0.3,0.2,0.5,0.3
			c0.1-0.2,0.3-0.3,0.4-0.5c0,0,0-0.1,0-0.1c0,0,0,0,0,0c0.1-0.1,0.1-0.1,0.2-0.2c0,0,0.1,0,0.1,0.1c0,0.1-0.1,0.1-0.1,0.2
			c0.1,0.1,0.3,0.2,0.4,0.2c0.2-0.3,0.4-0.5,0.6-0.7c0,0,0,0,0,0c0,0,0-0.1,0-0.1c0,0,0,0,0.1,0c0.3-0.3,0.5-0.6,0.9-0.9
			c0.1-0.1,0.1,0,0.1,0.1c-0.3,0.3-0.5,0.6-0.8,0.9c0.2,0.1,0.4,0.2,0.6,0.3c0.2-0.2,0.3-0.5,0.5-0.7c-0.1,0-0.1-0.1-0.2-0.2
			c0,0,0-0.1,0-0.1c0.1,0.1,0.2,0.1,0.2,0.2c0.1-0.2,0.3-0.3,0.4-0.5c0,0,0.1,0,0.1,0.1c-0.1,0.2-0.2,0.3-0.3,0.5
			c0.2,0.1,0.5,0.3,0.7,0.4c0.2-0.2,0.4-0.5,0.6-0.7c0,0,0-0.1,0.1-0.1c0.1-0.1,0.2-0.2,0.3-0.4c0,0,0.1,0,0.1,0.1
			c-0.1,0.1-0.2,0.3-0.3,0.4c0.3,0.2,0.6,0.4,0.9,0.6c0.3-0.4,0.7-0.7,1-1c0.1-0.1,0.2,0,0.1,0.1c-0.3,0.3-0.7,0.7-1,1
			c0.1,0,0.2,0.1,0.2,0.1c0.3,0,0.5,0,0.8,0c0-0.1,0.1-0.1,0.1-0.2c-0.2-0.1-0.4-0.2-0.6-0.3c0,0,0-0.1,0-0.1
			c0.2,0.1,0.4,0.2,0.6,0.3c0.3-0.3,0.6-0.6,0.9-0.9c0,0,0.1,0,0.1,0s0,0.1,0,0.1c-0.3,0.3-0.5,0.6-0.8,0.9c0.1,0,0.2,0.1,0.3,0.1
			c0.2,0,0.5,0,0.7,0c0.2-0.3,0.4-0.5,0.6-0.8c-0.2-0.1-0.5-0.3-0.7-0.4c-0.1-0.1-0.2-0.1-0.4-0.2c0,0,0-0.1,0-0.1
			c0.3,0.2,0.7,0.4,1.1,0.6c0.2-0.2,0.4-0.4,0.6-0.6c0.1,0,0.1,0,0.1,0.1c0,0,0,0-0.1,0.1c0.3,0.2,0.6,0.3,0.9,0.5
			c0.1-0.2,0.3-0.3,0.4-0.4c0.1,0,0.1,0,0.1,0.1c-0.1,0.1-0.3,0.3-0.4,0.4c0.2,0.1,0.5,0.2,0.7,0.3c0.2-0.3,0.4-0.5,0.7-0.8
			c-0.2-0.1-0.3-0.2-0.5-0.3c0,0,0-0.1,0-0.1c0.2,0.1,0.3,0.2,0.5,0.3c0.1-0.1,0.1-0.2,0.2-0.3c0,0,0.1,0,0.1,0.1
			c-0.1,0.1-0.1,0.2-0.2,0.2c0.2,0.1,0.5,0.3,0.7,0.4c0.2-0.2,0.4-0.5,0.7-0.7c0,0-0.1,0-0.1,0c-0.1,0,0-0.1,0-0.1c0,0,0.1,0,0.1,0
			c0.1-0.1,0.2-0.2,0.3-0.3c0,0,0.1,0,0.1,0.1c-0.1,0.1-0.1,0.2-0.2,0.2c0.1,0,0.3,0.1,0.4,0.1c0.2-0.2,0.5-0.3,0.7-0.5
			c-0.3-0.1-0.5-0.3-0.8-0.5c0,0,0-0.1,0.1-0.1c0.1,0.1,0.3,0.1,0.4,0.2c0.2-0.3,0.4-0.5,0.7-0.8c-0.2-0.1-0.3-0.2-0.5-0.3
			c0,0,0-0.1,0.1-0.1c0.1,0.1,0.3,0.2,0.5,0.3c0.2-0.2,0.4-0.5,0.6-0.7c-0.1-0.1-0.3-0.2-0.4-0.3c-0.1,0.1-0.2,0.3-0.4,0.4
			c0,0-0.1,0,0,0c0.3-0.4,0.6-0.8,0.9-1.1c-0.1-0.1-0.2-0.1-0.3-0.2c0,0,0-0.1,0-0.1c0.1,0.1,0.2,0.1,0.3,0.2
			c0.1-0.1,0.3-0.3,0.4-0.4c0,0,0-0.1,0-0.1c-0.1-0.1-0.2-0.2-0.4-0.3c0,0,0,0,0,0c0,0-0.1,0.1-0.1,0.1c-0.3,0.3-0.5,0.6-0.7,0.9
			c0,0-0.1,0-0.1,0c0.2-0.3,0.5-0.7,0.8-1.1c-0.1-0.1-0.2-0.2-0.3-0.3c0,0,0-0.1,0-0.1c0.1,0.1,0.2,0.2,0.3,0.2
			c0.1-0.1,0.2-0.2,0.3-0.3c0-0.1,0-0.2-0.1-0.3c-0.1-0.1-0.2-0.2-0.3-0.2c-0.1,0.1-0.3,0.3-0.4,0.4c-0.2,0.2-0.4,0.4-0.5,0.6
			c0,0.1-0.1,0-0.1,0c0.2-0.4,0.6-0.8,0.9-1.1c0,0-0.1,0-0.1-0.1c-0.1-0.1-0.3-0.2-0.4-0.3c-0.1,0.1-0.2,0.3-0.3,0.4
			c0,0-0.1,0-0.1,0c0.1-0.1,0.2-0.3,0.3-0.4c-0.1-0.1-0.2-0.1-0.2-0.2c0,0,0-0.1,0.1-0.1c0.1,0.1,0.2,0.1,0.2,0.2
			c0.1-0.1,0.2-0.2,0.3-0.3c0,0,0,0,0,0c-0.1-0.2-0.3-0.4-0.4-0.6c-0.1,0.1-0.2,0.2-0.3,0.3L54,35.3c0,0-0.1,0-0.1,0
			c0.1-0.2,0.3-0.4,0.4-0.7c0.1-0.1,0.2-0.3,0.3-0.4c-1.2-1.2-3-1.7-4.7-1.3c0.1,0.1,0.2,0.1,0.4,0.2c0.1,0,0,0.1,0,0.1
			C49.9,33.1,48.7,32,47.8,32.6z M41.7,37.1c0.4-0.2,0.5-0.5,0.6-0.8c-0.3,0-0.5,0-0.8-0.1c0,0,0,0,0,0c-0.6,0.1-1.2,0.2-1.9,0.2
			c-2.2-0.1-2.8-1-3.2-1.1c-1.1-0.4-2.1,0.8-1.8,1.9c0.2,0.9,1,1.5,1.8,1.9c1.5,0.7,3.3,0.9,5,1c0.3,0,0.6,0,0.9,0c0-1,0-2,0-3
			c-0.1,0.1-0.3,0.1-0.4,0.1C41.7,37.3,41.6,37.2,41.7,37.1z M41.7,23.7c-0.1,0.8,1.1,1.3,2.3,1.3c-0.1,0-0.2-0.1-0.3-0.1
			c-0.2-0.1-0.3-0.2-0.5-0.3c0,0,0-0.1,0-0.1c0.2,0.1,0.3,0.2,0.5,0.3c0.2,0,0.3,0.1,0.5,0.1c0,0,0,0,0,0.1c0.3,0,0.5-0.1,0.7-0.1
			c-0.3,0-0.6-0.2-0.9-0.3c0,0,0-0.1,0,0c0.4,0.2,0.7,0.2,1.1,0.3c0.2-0.1,0.4-0.2,0.5-0.3c-0.3,0-0.5-0.1-0.7-0.2c0,0,0-0.1,0-0.1
			c0.2,0.1,0.3,0.1,0.5,0.1c0.1,0,0.2,0,0.3,0c0.2-0.2,0.3-0.5,0.3-0.8c-0.3,0.3-0.8,0.4-1.3,0.4c0,0,0,0,0,0c0.3-0.1,0.7-0.3,1-0.5
			c-0.2,0-0.5,0-0.7,0c-0.1,0-0.1-0.1,0-0.1c0.3,0,0.5,0,0.8,0c0,0,0,0,0,0c0.1-0.1,0.2-0.2,0.2-0.3c-0.1,0-0.3,0-0.4-0.1
			c0,0,0-0.1,0-0.1c0.1,0.1,0.3,0.1,0.4,0.1c0.1-0.2,0.1-0.4,0.1-0.6c-0.6,0.6-1.6,1-3.2,0.8c-0.5-0.1-1-0.4-1.4-0.8
			c-0.2,0.2-0.3,0.6-0.1,0.9c0.2,0.3,0.5,0.4,0.8,0.5c0.6,0.2,1.2,0.2,1.8,0.3c0,0,0,0,0,0c-0.5,0.1-1.1,0-1.6,0
			C42.2,23.9,41.9,23.9,41.7,23.7z"/>
		<path id="XMLID_378_" class="st0" d="M43.8,82.7C43.8,82.7,43.8,82.6,43.8,82.7c-0.1-0.2-0.2-0.1-0.2-0.1c0,0.1,0.1,0.1,0.1,0.2
			c0,0.1,0,0.1-0.1,0.2h-0.2c0-0.2-0.1-0.4-0.1-0.6H44C43.9,82.5,43.9,82.6,43.8,82.7z"/>
		<path id="XMLID_376_" class="st0" d="M44.3,82.2C44.3,82.1,44.3,82.1,44.3,82.2c-0.1,0-0.2,0-0.2,0.1c0,0-0.1-0.1-0.1-0.1
			c-0.1-0.1-0.1-0.1-0.2-0.2c0.1-0.1,0.1-0.2,0.2-0.3c0.1,0.1,0.3,0.2,0.4,0.3c0,0,0,0,0,0c0,0.1,0,0.3,0,0.4h-0.1
			C44.2,82.3,44.3,82.3,44.3,82.2z"/>
		<path id="XMLID_913_" class="st0" d="M44.1,82.5c0.1,0.1,0.1,0.1,0.2,0.1c0,0.1,0,0.2,0,0.4h-0.1c-0.1-0.1-0.1-0.1-0.2-0.2
			c0,0,0,0,0,0C44,82.7,44.1,82.6,44.1,82.5z"/>
		<path id="XMLID_980_" class="st0" d="M43.9,82.9C43.9,83,43.9,83,43.9,82.9L43.9,82.9C43.9,83,43.9,83,43.9,82.9z"/>
		<path id="XMLID_402_" class="st0" d="M44.3,83C44.3,83,44.3,83.1,44.3,83c-0.1,0.1-0.1,0-0.1,0H44.3z"/>
		<path id="XMLID_398_" class="st0" d="M44,83.4C44,83.4,44,83.4,44,83.4c0,0.1,0,0.1,0,0.2C44,83.7,43.8,84,43.8,84
			c0,0,0,0.1-0.1,0.1c0-0.2-0.1-0.5-0.1-0.7c0,0,0,0,0,0c0.1-0.1,0.1-0.2,0.2-0.4H44c0.1,0.1,0.2,0.2,0.3,0.2c0,0,0,0,0,0
			c0,0.1-0.1,0.2-0.1,0.3C44.1,83.5,44.1,83.5,44,83.4z"/>
		<path id="XMLID_394_" class="st0" d="M43.8,84.2c0.1,0.3,0.2,0.6,0.3,1c0-0.3,0.1-0.5,0.1-0.8c-0.1,0-0.1-0.1-0.2-0.2
			C43.9,84.2,43.9,84.1,43.8,84.2C43.8,84.1,43.8,84.2,43.8,84.2z M44.2,83.8C44.2,83.8,44.2,83.8,44.2,83.8
			c-0.1,0.1-0.2,0.2-0.3,0.3c0,0,0.1,0.1,0.1,0.1c0,0,0.1,0.1,0.1,0.1C44.2,84.1,44.2,83.9,44.2,83.8z M44.3,83.3
			C44.2,83.2,44,83.1,44,83h0.2c0,0,0.1,0.1,0.1,0.1c0,0,0-0.1,0-0.1h0.3c-0.1,0.8-0.2,1.5-0.3,2.3c-0.1,0.3-0.4,0.5-0.5,0
			c-0.2-0.7-0.4-1.5-0.6-2.3h0.3c0,0.1,0,0.3,0.1,0.4v0c0,0.2,0.1,0.5,0.1,0.7c0,0,0.1-0.1,0.1-0.1c0,0,0.2-0.3,0.2-0.4
			c0-0.1-0.1-0.1-0.1-0.2c0,0,0,0,0.1,0c0,0,0,0.1,0.1,0.1C44.2,83.5,44.2,83.4,44.3,83.3C44.3,83.3,44.3,83.3,44.3,83.3z"/>
		<path id="XMLID_391_" class="st0" d="M43.6,83.4c0-0.1-0.1-0.3-0.1-0.4h0.2C43.7,83.1,43.6,83.3,43.6,83.4
			C43.6,83.4,43.6,83.4,43.6,83.4z"/>
		<path id="XMLID_379_" class="st0" d="M43.9,84c0.1-0.1,0.2-0.2,0.2-0.3c0,0,0,0,0,0c0,0.2,0,0.3,0,0.5c0,0-0.1-0.1-0.1-0.1
			C44,84.1,44,84.1,43.9,84z"/>
		<path id="XMLID_377_" class="st0" d="M44.4,81.4c0,0.1,0,0.3,0,0.4c-0.1-0.1-0.2-0.2-0.3-0.3c0.1-0.1,0.1-0.2,0.2-0.3
			C44.3,81.3,44.4,81.4,44.4,81.4z"/>
		<path id="XMLID_383_" class="st0" d="M44.1,84.4c0,0.3-0.1,0.5-0.1,0.8c-0.1-0.3-0.2-0.6-0.3-1c0,0,0.1-0.1,0.1-0.1
			c0,0,0,0.1,0.1,0.1C44,84.3,44.1,84.3,44.1,84.4z"/>
		<path id="XMLID_943_" class="st1" d="M45,51c0,0-0.7-0.3-0.9-0.5c0.2-0.2,0.4-0.4,0.5-0.7c0,0,0,0,0,0c0.2,0.1,0.4,0.2,0.6,0.3
			c0,0.3,0,0.6,0,0.8C45.1,51,45.1,51.1,45,51C45,51.1,45,51.1,45,51C45,51,45,51,45,51z"/>
		<path id="XMLID_368_" class="st2" d="M56.7,17.5c0.1,0,0.1,0.1,0.1,0.1c-0.6,0.4-1.2,0.8-1.8,1.2c-0.7,0.4-1.1,0.6-1.1,1.5
			c0,1-0.1,1.9-0.7,2.7c-1,1.4-2.9,1.8-4.4,1c0,0,0,0,0,0c2.3,0.9,4.8-0.6,4.8-3.2c0-0.6-0.2-1.2,0.3-1.6
			C54.6,18.5,55.8,18,56.7,17.5z"/>
		<path id="XMLID_364_" class="st2" d="M50,33.4c0.1,0,0,0.1-0.1,0.1c-0.1-0.1-0.3-0.2-0.4-0.2c0,0-0.1,0-0.1,0c0,1.1-1.5,0.4-2,0.7
			c-0.1,0.1-0.3-0.1-0.2-0.2c0.2-0.8,1-1.1,1.7-1c0.2,0,0.3,0.1,0.5,0.2C49.6,33.1,49.8,33.3,50,33.4z M49,33.6c0-0.2,0-0.4-0.1-0.6
			c-0.1,0-0.2,0-0.3,0c0.1,0.2,0.1,0.7,0.1,0.7C48.8,33.7,48.9,33.7,49,33.6z M48.5,33.7c-0.1-0.2-0.2-0.4-0.1-0.7
			c-0.2,0-0.3,0.1-0.5,0.3c0,0.1,0,0.1,0,0.2c0,0,0.1,0.1,0.1,0.1c0,0,0.1,0.1,0.1,0.1c0,0,0,0,0,0C48.2,33.7,48.3,33.7,48.5,33.7z"
			/>
		<path id="XMLID_363_" class="st2" d="M49.7,51.4C49.7,51.4,49.7,51.5,49.7,51.4c-0.2,0.1-0.3-0.1-0.4-0.2c0,0,0-0.1,0,0
			c0,0.1,0.1,0.1,0.2,0.2C49.6,51.4,49.7,51.4,49.7,51.4z"/>
		<path id="XMLID_362_" class="st0" d="M47.6,45.2c0.9,1,1.3,2.3,0.6,3.5c-0.6,1-1.7,1.6-2.8,2.1c0-0.3,0-0.7,0-1c0,0,0,0,0,0
			c0.1-2-0.1-4.1-0.1-6.1C46.2,44.1,47,44.5,47.6,45.2z"/>
		<path id="XMLID_361_" class="st1" d="M47.8,52.7c-0.2,0.1-0.3,0.2-0.5,0.2c0.1-0.1,0.1-0.2,0.2-0.4C47.6,52.6,47.7,52.6,47.8,52.7
			z"/>
		<path id="XMLID_360_" class="st1" d="M47.4,52.5c-0.1,0.2-0.2,0.3-0.3,0.5c-0.1,0-0.2,0.1-0.3,0.1c-0.2-0.1-0.4-0.2-0.6-0.3
			c0.2-0.2,0.3-0.5,0.5-0.7C47,52.2,47.2,52.4,47.4,52.5z"/>
		<path id="XMLID_359_" class="st0" d="M47,42.6c-0.1,0-0.1,0-0.2,0c0,0,0-0.1,0.1-0.1C46.9,42.6,47,42.6,47,42.6z"/>
		<path id="XMLID_358_" class="st1" d="M46.8,53.1c-0.3,0.1-0.7,0.3-1,0.4c0.2-0.2,0.3-0.4,0.5-0.6C46.4,53,46.6,53.1,46.8,53.1z"/>
		<path id="XMLID_357_" class="st1" d="M45.4,42.6c0,0.1-0.1,0.1-0.1,0.2c-0.3,0-0.6,0-0.9,0.1c-0.2-0.1-0.3-0.1-0.4-0.2
			c0.2-0.2,0.4-0.4,0.6-0.7C44.8,42.2,45.1,42.4,45.4,42.6z"/>
		<path id="XMLID_356_" class="st1" d="M45.2,48.2c0,0.3,0,0.6,0,0.9c-0.1,0.1-0.1,0.1-0.2,0.2c-0.2-0.1-0.3-0.2-0.5-0.3
			C44.8,48.8,45,48.5,45.2,48.2z"/>
		<path id="XMLID_355_" class="st1" d="M45,49.5c0,0,0.1,0.1,0.1,0.1c0,0,0,0,0,0.1c0,0.1,0,0.3,0,0.4c-0.2-0.1-0.3-0.1-0.5-0.2
			C44.8,49.7,44.9,49.6,45,49.5z"/>
		<path id="XMLID_354_" class="st1" d="M45.2,47.4c0,0.2,0,0.4,0,0.6c-0.3-0.2-0.6-0.4-0.9-0.6c0.1-0.1,0.2-0.2,0.3-0.3
			C44.7,47.2,44.9,47.3,45.2,47.4C45.2,47.4,45.2,47.4,45.2,47.4z"/>
		<path id="XMLID_353_" class="st1" d="M45.2,55.5c0,0.3,0,0.6,0,0.9c0,0-0.1-0.1-0.1-0.1c0,0,0-0.1,0.1-0.1s0-0.1-0.1,0
			c0,0-0.1,0.1-0.1,0.1c-0.3-0.1-0.5-0.3-0.8-0.4c0.2-0.2,0.3-0.4,0.5-0.6C44.8,55.3,45.2,55.5,45.2,55.5z"/>
		<path id="XMLID_351_" class="st1" d="M45.1,48.1C45.1,48.1,45.2,48.1,45.1,48.1c-0.2,0.3-0.5,0.5-0.7,0.8
			c-0.2-0.1-0.3-0.2-0.5-0.3c0,0-0.1,0,0,0.1c0.1,0.1,0.3,0.2,0.4,0.3c-0.3,0.3-0.6,0.5-0.9,0.8c0,0,0,0.1,0,0.1
			c0.3-0.2,0.7-0.5,1-0.8c0.1,0.1,0.3,0.2,0.5,0.3c-0.1,0.1-0.3,0.3-0.4,0.4c-0.1,0-0.2-0.1-0.3-0.1c0,0-0.1,0.1,0,0.1
			c0.1,0,0.2,0.1,0.3,0.1c-0.2,0.2-0.3,0.5-0.5,0.7c-0.2-0.1-0.3-0.2-0.5-0.3c0,0-0.1,0,0,0.1c0.1,0.1,0.3,0.3,0.5,0.4
			c-0.1,0.1-0.1,0.2-0.2,0.3c0,0,0,0.1,0.1,0c0.1-0.1,0.1-0.2,0.2-0.3c0.2,0.2,0.5,0.3,0.8,0.4c-0.1,0.1-0.2,0.2-0.3,0.3
			c-0.1,0.1-0.3,0.1-0.4,0.2c-0.2-0.1-0.4-0.2-0.7-0.4c0,0-0.1,0,0,0c0.2,0.2,0.4,0.3,0.6,0.4c-0.1,0-0.1,0-0.2,0.1
			c-0.4-0.2-0.8-0.4-1.2-0.6c0-2.4-0.1-5-0.1-7.4c0.4-0.1,1.6-0.3,1.8-0.2c0.2,0.2,0.5,0.3,0.8,0.5c0,0,0,0,0,0
			c-0.2,0.3-0.4,0.5-0.7,0.8c0,0,0,0,0,0c-0.1-0.1-0.2-0.1-0.4-0.3c0,0-0.1,0-0.1,0.1c0.1,0.1,0.2,0.2,0.3,0.3
			c-0.2,0.2-0.3,0.3-0.5,0.5c-0.1-0.1-0.2-0.2-0.3-0.3c0,0-0.1,0,0,0c0.1,0.1,0.2,0.2,0.3,0.4c-0.1,0.1-0.2,0.1-0.3,0.2
			c0,0,0,0.1,0,0c0.1-0.1,0.2-0.1,0.3-0.2c0.2,0.2,0.4,0.4,0.6,0.5c-0.2,0.3-0.5,0.6-0.8,0.8c0,0,0,0.1,0,0.1
			c0.3-0.2,0.6-0.5,0.9-0.8c0.2,0.1,0.4,0.2,0.5,0.3c0,0,0,0,0,0c-0.2,0.2-0.5,0.5-0.7,0.7c-0.1-0.1-0.3-0.2-0.4-0.4c0,0,0,0,0,0
			c0.1,0.1,0.3,0.3,0.4,0.4c-0.1,0.1-0.2,0.2-0.3,0.3c-0.3-0.3-0.7-0.6-1-0.9c0,0-0.1,0-0.1,0c0.2,0.4,0.5,0.7,0.9,1
			c0,0.1-0.1,0.1-0.1,0.1c0,0,0,0.1,0,0c0,0,0.1-0.1,0.1-0.1C44.4,47.7,44.8,47.9,45.1,48.1z"/>
		<path id="XMLID_350_" class="st1" d="M45.1,46.4c0,0.3,0,0.6,0,0.9c-0.2-0.1-0.4-0.2-0.6-0.3c0,0,0,0,0,0
			C44.8,46.8,45,46.6,45.1,46.4z"/>
		<path id="XMLID_348_" class="st1" d="M45.1,45.2c0,0.3,0,0.6,0,0.9c-0.2-0.1-0.3-0.2-0.5-0.2C44.8,45.6,45,45.4,45.1,45.2
			C45.1,45.2,45.1,45.2,45.1,45.2z"/>
		<path id="XMLID_347_" class="st1" d="M45.1,44.1c0,0.3,0,0.7,0,1c-0.2-0.1-0.4-0.2-0.6-0.3C44.7,44.6,45,44.3,45.1,44.1z"/>
		<path id="XMLID_346_" class="st0" d="M45.1,43.7C45.1,43.7,45.1,43.7,45.1,43.7C45.1,43.7,45.1,43.7,45.1,43.7
			c-0.1,0-0.3,0-0.4-0.1C44.8,43.6,45,43.6,45.1,43.7z"/>
		<path id="XMLID_345_" class="st0" d="M45.1,40.2C45.1,40.2,45.1,40.2,45.1,40.2c-0.1,0-0.2,0-0.4,0c0,0,0.1-0.1,0.1-0.1
			C44.9,40.1,45,40.1,45.1,40.2C45,40.2,45.1,40.2,45.1,40.2z"/>
		<path id="XMLID_344_" class="st0" d="M45.1,39.8c0,0.1,0,0.2,0,0.3C45,40,45,40,45,40C45,39.9,45,39.8,45.1,39.8z"/>
		<path id="XMLID_343_" class="st0" d="M45.1,38.2c0,0.3,0,0.6,0,1c-0.2-0.2-0.4-0.3-0.6-0.4c0.2-0.2,0.3-0.4,0.5-0.6
			C45,38.2,45,38.2,45.1,38.2C45,38.2,45.1,38.2,45.1,38.2z"/>
		<path id="XMLID_342_" class="st1" d="M45,45.1c-0.2,0.2-0.3,0.4-0.5,0.6c-0.2-0.1-0.4-0.3-0.6-0.4c0.2-0.1,0.4-0.3,0.5-0.5
			C44.6,45,44.8,45.1,45,45.1z"/>
		<path id="XMLID_337_" class="st1" d="M44.4,54.1c-0.2,0.1-0.3,0.1-0.5,0.2c-0.2,0.1-0.3,0.1-0.5,0.2c0,0,0,0-0.1,0
			c0.2-0.2,0.3-0.5,0.5-0.7C44,53.8,44.2,54,44.4,54.1z"/>
		<path id="XMLID_336_" class="st0" d="M43.8,42.7c0.1,0.1,0.2,0.1,0.4,0.2c-0.2,0-0.4,0.1-0.7,0.1C43.6,42.9,43.7,42.8,43.8,42.7z"
			/>
		<path id="XMLID_334_" class="st1" d="M43.7,42.6c-0.1,0.1-0.3,0.3-0.4,0.4c-0.2,0-0.3,0.1-0.5,0.1c0,0,0,0,0-0.1
			c-0.1-0.1-0.2-0.1-0.3-0.2c0.2-0.2,0.3-0.4,0.5-0.7C43.2,42.4,43.5,42.5,43.7,42.6z"/>
		<path id="XMLID_333_" class="st1" d="M43.4,51.9c0,0-0.1,0-0.1,0c-0.3-0.1-0.6-0.2-0.8-0.3c0-0.1,0.1-0.1,0.1-0.2
			c0.1,0.1,0.3,0.1,0.4,0.2C43.1,51.8,43.3,51.8,43.4,51.9z"/>
		<path id="XMLID_332_" class="st1" d="M43.2,54.5c0,0-0.1,0.1-0.1,0.1c-0.2,0.1-0.4,0.2-0.6,0.3c-0.1,0-0.1-0.1-0.2-0.1
			c0.1-0.2,0.2-0.4,0.4-0.6C42.9,54.3,43,54.4,43.2,54.5z"/>
		<path id="XMLID_331_" class="st1" d="M43.2,52c-0.2,0.1-0.4,0.2-0.7,0.3c0.1-0.1,0.3-0.3,0.4-0.4C43,52,43.1,52,43.2,52z"/>
		<path id="XMLID_330_" class="st1" d="M42.8,51.9c-0.2,0.2-0.3,0.3-0.5,0.5c-0.1,0-0.3-0.1-0.4-0.1c0.1-0.2,0.3-0.3,0.4-0.5
			C42.5,51.8,42.7,51.9,42.8,51.9z"/>
		<path id="XMLID_329_" class="st1" d="M42.4,43c0.1,0,0.2,0.1,0.4,0.2c-0.2,0.1-0.5,0.1-0.7,0.2C42.2,43.2,42.3,43.1,42.4,43z"/>
		<path id="XMLID_328_" class="st0" d="M42.5,54.9c-0.1,0-0.2,0.1-0.3,0.1c0-0.1,0.1-0.1,0.1-0.2L42.5,54.9z"/>
		<path id="XMLID_327_" class="st0" d="M42.4,55.4c0,1.9,0,3.8,0,5.6c-1.8-0.6-2.3-1.4-2.5-2c-0.5-1.6,1-2.8,2.3-3.5
			C42.3,55.5,42.3,55.5,42.4,55.4z"/>
		<path id="XMLID_326_" class="st0" d="M42.3,48.9c0,0.7,0,1.4,0,2c0,0-0.1,0-0.1-0.1c-4.5-2-3.1-4.7-2.2-5.7
			c0.6-0.7,1.4-1.1,2.2-1.4C42.2,45.4,42.3,47.3,42.3,48.9z"/>
		<path id="XMLID_325_" class="st1" d="M42.3,42.9c-0.1,0.2-0.3,0.4-0.4,0.5c-0.1,0-0.2,0.1-0.3,0.1c-0.2-0.1-0.3-0.1-0.5-0.2
			c0.2-0.3,0.4-0.5,0.6-0.7C41.9,42.7,42.1,42.8,42.3,42.9z"/>
		<path id="XMLID_324_" class="st1" d="M42.3,52.5C42.3,52.5,42.3,52.5,42.3,52.5c-0.2,0.1-0.3,0.2-0.5,0.3c-0.1,0-0.2-0.1-0.2-0.1
			c0.1-0.1,0.2-0.2,0.3-0.3C42,52.4,42.2,52.4,42.3,52.5z"/>
		<path id="XMLID_323_" class="st1" d="M42.3,51.7c-0.1,0.2-0.3,0.3-0.4,0.5c-0.1,0-0.3-0.1-0.4-0.1c0,0,0,0,0,0
			c0.1,0,0.2,0.1,0.3,0.1c-0.1,0.1-0.2,0.2-0.3,0.3c-0.1,0-0.3-0.1-0.4-0.1h0l0,0c0.2-0.3,0.4-0.6,0.7-0.9
			C41.9,51.6,42.1,51.7,42.3,51.7z"/>
		<path id="XMLID_322_" class="st0" d="M42.2,37.2c0,1,0,2,0,3c-0.3,0-0.6,0-0.9,0c-1.7-0.1-3.5-0.3-5-1c-0.8-0.4-1.6-1-1.8-1.9
			c-0.3-1.1,0.7-2.3,1.8-1.9c0.3,0.1,1,1.1,3.2,1.1c0.6,0,1.3-0.1,1.9-0.2c0,0,0,0,0,0c0.3,0.1,0.5,0.1,0.8,0.1
			c-0.1,0.3-0.2,0.6-0.6,0.8c-0.1,0,0,0.2,0.1,0.2C41.9,37.3,42.1,37.3,42.2,37.2z"/>
		<path id="XMLID_321_" class="st1" d="M41.7,52.8c-0.2,0.1-0.3,0.2-0.5,0.3c0.1-0.1,0.2-0.2,0.3-0.3C41.6,52.7,41.7,52.8,41.7,52.8
			z"/>
		<path id="XMLID_320_" class="st1" d="M41.6,55.4c-0.2,0.1-0.3,0.2-0.5,0.3c0,0-0.1-0.1-0.1-0.1c0,0-0.1,0-0.1,0
			c0.1-0.1,0.2-0.3,0.3-0.4C41.3,55.2,41.4,55.3,41.6,55.4z"/>
		<path id="XMLID_319_" class="st1" d="M41.5,43.6c-0.2,0.1-0.4,0.2-0.6,0.3c0,0,0,0,0,0c0,0-0.1,0-0.1-0.1c0.1-0.1,0.2-0.3,0.3-0.4
			C41.2,43.5,41.4,43.6,41.5,43.6z"/>
		<path id="XMLID_318_" class="st1" d="M41.5,52.7c-0.1,0.1-0.2,0.2-0.3,0.3c0,0,0,0.1,0,0.1c-0.1,0-0.1,0.1-0.2,0.1
			c-0.1,0-0.2-0.1-0.3-0.1c0.1-0.2,0.3-0.4,0.4-0.6l0,0c0,0,0,0,0,0C41.2,52.6,41.3,52.6,41.5,52.7z"/>
		<path id="XMLID_317_" class="st0" d="M41.2,50.7C41.2,50.8,41.1,50.8,41.2,50.7c-0.3-0.1-0.5-0.2-0.7-0.3c0,0,0.1-0.1,0.1-0.1
			C40.7,50.5,40.9,50.6,41.2,50.7z"/>
		<path id="XMLID_316_" class="st1" d="M41,55.8c-0.2,0.1-0.4,0.3-0.5,0.4c0.1-0.2,0.2-0.4,0.3-0.6l0.1,0.1C41,55.7,41,55.7,41,55.8
			z"/>
		<path id="XMLID_315_" class="st1" d="M40.9,43.4c-0.1,0.1-0.2,0.3-0.3,0.4c-0.1-0.1-0.3-0.1-0.4-0.2c0.1-0.2,0.2-0.3,0.3-0.5
			C40.7,43.2,40.8,43.3,40.9,43.4z"/>
		<path id="XMLID_314_" class="st0" d="M40.9,44c-0.1,0.1-0.2,0.1-0.3,0.2c0.1-0.1,0.1-0.2,0.2-0.3C40.8,44,40.8,44,40.9,44z"/>
		<path id="XMLID_313_" class="st1" d="M40.6,43.9c-0.1,0.2-0.2,0.3-0.3,0.5c0,0,0,0,0,0c-0.1,0.1-0.2,0.2-0.3,0.3
			c-0.1-0.1-0.2-0.2-0.3-0.2c0.2-0.3,0.4-0.5,0.5-0.8C40.3,43.8,40.5,43.8,40.6,43.9z"/>
		<path id="XMLID_309_" class="st2" d="M40.4,33.8c0,0.1-0.1,0.3-0.2,0.2c-0.5-0.3-1.7,0.3-1.9-0.7c0-0.1-0.4,0.2-0.6,0.2
			c-0.1,0-0.1-0.1-0.1-0.1c0.2-0.1,0.7-0.5,1.1-0.6C39.4,32.6,40.2,33,40.4,33.8z M39.7,33.5c0-0.1,0.1-0.1,0-0.2
			c-0.1-0.1-0.3-0.2-0.5-0.3c0,0.2,0,0.5-0.1,0.7c0.1,0,0.3,0,0.4,0v0C39.6,33.6,39.6,33.6,39.7,33.5C39.7,33.5,39.7,33.5,39.7,33.5
			z M39,33c-0.1,0-0.2,0-0.3,0c-0.2,0.3-0.2,0.4-0.1,0.6c0.1,0.1,0.2,0.1,0.3,0.1c0,0,0,0,0,0C38.9,33.4,38.9,33.2,39,33z"/>
		<path id="XMLID_308_" class="st1" d="M39.5,40.4c0.4,0.1,0.9,0.1,1.3,0.1c-0.5,0.1-0.9,0.2-1.3,0.4c-0.1,0-0.2-0.1-0.3-0.1
			C39.3,40.7,39.4,40.6,39.5,40.4z"/>
		<path id="XMLID_307_" class="st1" d="M40,56.5c0,0,0.1,0.1,0.2,0.1c-0.2,0.3-0.4,0.5-0.5,0.8c0,0-0.1,0-0.1-0.1
			C39.7,57.1,39.8,56.8,40,56.5z"/>
		<path id="XMLID_306_" class="st1" d="M39.5,57.4c0,0,0.1,0,0.1,0.1c-0.1,0.2-0.1,0.5-0.2,0.7c0-0.1-0.1-0.1-0.2-0.1
			c0,0-0.1,0-0.1-0.1C39.3,57.8,39.4,57.6,39.5,57.4z"/>
		<path id="XMLID_305_" class="st1" d="M39.4,44.4c-0.2,0.2-0.4,0.5-0.5,0.7c-0.2-0.1-0.4-0.2-0.7-0.3c0.2-0.3,0.4-0.5,0.5-0.8
			C39,44.2,39.2,44.3,39.4,44.4z"/>
		<path id="XMLID_221_" class="st1" d="M39.1,40.9c0.1,0,0.2,0.1,0.2,0.1c-0.2,0.1-0.4,0.2-0.6,0.3C38.8,41.1,38.9,41,39.1,40.9z"/>
		<path id="XMLID_137_" class="st1" d="M39.3,40.4c-0.1,0.1-0.2,0.2-0.3,0.3c-0.1,0-0.3-0.1-0.4-0.1c0.1-0.1,0.1-0.2,0.2-0.2
			C38.9,40.4,39.1,40.4,39.3,40.4z"/>
		<path id="XMLID_31_" class="st1" d="M38.9,40.8c-0.2,0.2-0.3,0.3-0.5,0.5c0,0,0,0,0,0c-0.1,0-0.2-0.1-0.3-0.1c0,0-0.1,0-0.1,0
			c0.1-0.2,0.3-0.3,0.4-0.5C38.7,40.7,38.8,40.8,38.9,40.8z"/>
		<path id="XMLID_11_" class="st1" d="M38.3,41.4c-0.1,0-0.2,0.1-0.3,0.2c-0.1,0-0.1,0.1-0.2,0.1c-0.1,0-0.1,0-0.2-0.1
			c0.1-0.1,0.2-0.3,0.3-0.4C38.1,41.3,38.2,41.4,38.3,41.4z"/>
		<path id="XMLID_9_" class="st1" d="M37.8,41.2c-0.1,0.1-0.2,0.3-0.3,0.4c-0.1,0-0.3-0.1-0.4-0.1c0.1-0.2,0.3-0.3,0.4-0.5
			C37.7,41.1,37.8,41.1,37.8,41.2z"/>
	</g>
	<g id="XMLID_7_">
	</g>
</g>
</svg>
